<?xml version="1.0" encoding="UTF-8" standalone="no"?>
<!-- Generated by graphviz version 2.36.0 (20140111.2315)
 -->

<!-- Title: G Pages: 1 -->

<svg
   xmlns:dc="http://purl.org/dc/elements/1.1/"
   xmlns:cc="http://creativecommons.org/ns#"
   xmlns:rdf="http://www.w3.org/1999/02/22-rdf-syntax-ns#"
   xmlns:svg="http://www.w3.org/2000/svg"
   xmlns="http://www.w3.org/2000/svg"
   xmlns:sodipodi="http://sodipodi.sourceforge.net/DTD/sodipodi-0.dtd"
   xmlns:inkscape="http://www.inkscape.org/namespaces/inkscape"
   width="453.19998"
   height="257.99997"
   viewBox="0 0 362.79904 206.39998"
   id="svg2"
   version="1.1"
   inkscape:version="0.47 r22583"
   sodipodi:docname="Red-black_tree_delete_case_5_as_svg.svg">
  <metadata
     id="metadata240">
    <rdf:RDF>
      <cc:Work
         rdf:about="">
        <dc:format>image/svg+xml</dc:format>
        <dc:type
           rdf:resource="http://purl.org/dc/dcmitype/StillImage" />
      </cc:Work>
    </rdf:RDF>
  </metadata>
  <defs
     id="defs238">
    <inkscape:perspective
       sodipodi:type="inkscape:persp3d"
       inkscape:vp_x="0 : 140 : 1"
       inkscape:vp_y="0 : 1000 : 0"
       inkscape:vp_z="455 : 140 : 1"
       inkscape:persp3d-origin="227.5 : 93.333333 : 1"
       id="perspective242" />
    <inkscape:perspective
       id="perspective3190"
       inkscape:persp3d-origin="0.5 : 0.33333333 : 1"
       inkscape:vp_z="1 : 0.5 : 1"
       inkscape:vp_y="0 : 1000 : 0"
       inkscape:vp_x="0 : 0.5 : 1"
       sodipodi:type="inkscape:persp3d" />
    <inkscape:perspective
       id="perspective2988"
       inkscape:persp3d-origin="0.5 : 0.33333333 : 1"
       inkscape:vp_z="1 : 0.5 : 1"
       inkscape:vp_y="0 : 1000 : 0"
       inkscape:vp_x="0 : 0.5 : 1"
       sodipodi:type="inkscape:persp3d" />
    <inkscape:perspective
       id="perspective3400"
       inkscape:persp3d-origin="0.5 : 0.33333333 : 1"
       inkscape:vp_z="1 : 0.5 : 1"
       inkscape:vp_y="0 : 1000 : 0"
       inkscape:vp_x="0 : 0.5 : 1"
       sodipodi:type="inkscape:persp3d" />
    <inkscape:perspective
       id="perspective3428"
       inkscape:persp3d-origin="0.5 : 0.33333333 : 1"
       inkscape:vp_z="1 : 0.5 : 1"
       inkscape:vp_y="0 : 1000 : 0"
       inkscape:vp_x="0 : 0.5 : 1"
       sodipodi:type="inkscape:persp3d" />
    <inkscape:perspective
       id="perspective2965"
       inkscape:persp3d-origin="0.5 : 0.33333333 : 1"
       inkscape:vp_z="1 : 0.5 : 1"
       inkscape:vp_y="0 : 1000 : 0"
       inkscape:vp_x="0 : 0.5 : 1"
       sodipodi:type="inkscape:persp3d" />
  </defs>
  <sodipodi:namedview
     pagecolor="#ffffff"
     bordercolor="#666666"
     borderopacity="1"
     objecttolerance="10"
     gridtolerance="10"
     guidetolerance="10"
     inkscape:pageopacity="0"
     inkscape:pageshadow="2"
     inkscape:window-width="1717"
     inkscape:window-height="1015"
     id="namedview236"
     showgrid="false"
     inkscape:zoom="2"
     inkscape:cx="213.42815"
     inkscape:cy="135.15112"
     inkscape:window-x="0"
     inkscape:window-y="0"
     inkscape:window-maximized="0"
     inkscape:current-layer="layer3"
     borderlayer="true" />
  <g
     inkscape:groupmode="layer"
     id="layer1"
     inkscape:label="corners"
     transform="translate(-0.64042187,-54.030945)"
     style="display:none">
    <rect
       style="opacity:0.7;fill:#000000;stroke:#ffffff;stroke-width:6.40421963;stroke-linecap:butt;stroke-miterlimit:4;stroke-dasharray:38.42531742, 38.42531742;stroke-dashoffset:0;display:inline"
       id="rect2980"
       width="1.2007912"
       height="0.80052745"
       x="3.8425317"
       y="57.165012" />
    <rect
       y="256.49634"
       x="359.03656"
       height="0.80052745"
       width="1.2007912"
       id="rect3384"
       style="opacity:0.7;fill:#000000;stroke:#ffffff;stroke-width:6.40421963;stroke-linecap:butt;stroke-miterlimit:4;stroke-dasharray:38.42531742, 38.42531742;stroke-dashoffset:0;display:inline" />
  </g>
  <g
     inkscape:groupmode="layer"
     id="layer2"
     inkscape:label="R"
     transform="translate(-0.64042187,-54.030945)">
    <g
       class="node"
       id="node15"
       transform="translate(10.404218,273.63534)">
      <title
         id="title126">S2</title>
      <ellipse
         style="fill:#ff0000;stroke:#000000"
         sodipodi:ry="18"
         sodipodi:rx="18"
         sodipodi:cy="-144"
         sodipodi:cx="284.60001"
         d="m 302.60001,-144 c 0,9.94113 -8.05888,18 -18,18 -9.94113,0 -18,-8.05887 -18,-18 0,-9.94113 8.05887,-18 18,-18 9.94112,0 18,8.05887 18,18 z"
         id="ellipse128"
         ry="18"
         rx="18"
         cy="-144"
         cx="284.60001" />
      <text
         style="font-size:14px;font-weight:bold;text-anchor:middle;fill:#ffffff;font-family:'Helvetica,sans-Serif'"
         id="text130"
         font-size="14.00"
         font-weight="bold"
         y="-140.3"
         x="284.60001">S</text>
    </g>
    <g
       class="node"
       id="node17"
       transform="translate(10.404218,273.63534)">
      <title
         id="title133">SR2</title>
      <ellipse
         style="fill:#000000;stroke:#000000"
         sodipodi:ry="18"
         sodipodi:rx="18"
         sodipodi:cy="-90"
         sodipodi:cx="320.60001"
         d="m 338.60001,-90 c 0,9.941125 -8.05888,18 -18,18 -9.94113,0 -18,-8.058875 -18,-18 0,-9.941125 8.05887,-18 18,-18 9.94112,0 18,8.058875 18,18 z"
         id="ellipse135"
         ry="18"
         rx="18"
         cy="-90"
         cx="320.60001" />
      <text
         style="font-size:14px;font-weight:bold;text-anchor:middle;fill:#ffffff;font-family:'Helvetica,sans-Serif'"
         id="text137"
         font-size="14.00"
         font-weight="bold"
         y="-86.300003"
         x="320.60001">S</text>
    </g>
    <g
       class="edge"
       id="edge8"
       transform="translate(10.404218,273.63534)">
      <title
         id="title140">S2-&gt;SR2</title>
      <path
         style="fill:none;stroke:#000000"
         id="path142"
         d="m 294.628,-128.958 c 3.145,4.718 6.698,10.047 10.143,15.214" />
      <polygon
         style="fill:#000000;stroke:#000000"
         id="polygon144"
         points="307.741,-115.599 310.376,-105.337 301.916,-111.716 307.741,-115.599 " />
    </g>
    <g
       class="node"
       id="node19"
       transform="translate(10.404218,273.63534)">
      <title
         id="title147">dot2b</title>
      <ellipse
         style="fill:#000000;stroke:#000000"
         sodipodi:ry="7"
         sodipodi:rx="7"
         sodipodi:cy="-90"
         sodipodi:cx="263"
         d="m 270,-90 c 0,3.865993 -3.13401,7 -7,7 -3.86599,0 -7,-3.134007 -7,-7 0,-3.865993 3.13401,-7 7,-7 3.86599,0 7,3.134007 7,7 z"
         id="ellipse149"
         ry="7"
         rx="7"
         cy="-90"
         cx="263" />
    </g>
    <g
       class="edge"
       id="edge10"
       transform="translate(10.404218,273.63534)">
      <title
         id="title152">S2-&gt;dot2b</title>
      <path
         style="fill:none;stroke:#000000"
         id="path154"
         d="m 277.884,-127.21 c -2.698,6.745 -5.795,14.488 -8.463,21.158" />
      <polygon
         style="fill:#000000;stroke:#000000"
         id="polygon156"
         points="272.664,-104.737 265.701,-96.7521 266.165,-107.337 272.664,-104.737 " />
    </g>
    <g
       class="node"
       id="node16"
       transform="translate(10.404218,273.63534)">
      <title
         id="title159">SL2</title>
      <ellipse
         style="fill:#000000;stroke:#000000"
         sodipodi:ry="18"
         sodipodi:rx="18"
         sodipodi:cy="-198"
         sodipodi:cx="248.60001"
         d="m 266.60001,-198 c 0,9.94113 -8.05888,18 -18,18 -9.94113,0 -18,-8.05887 -18,-18 0,-9.94113 8.05887,-18 18,-18 9.94112,0 18,8.05887 18,18 z"
         id="ellipse161"
         ry="18"
         rx="18"
         cy="-198"
         cx="248.60001" />
      <text
         style="font-size:14px;font-weight:bold;text-anchor:middle;fill:#ffffff;font-family:'Helvetica,sans-Serif'"
         id="text163"
         font-size="14.00"
         font-weight="bold"
         y="-194.3"
         x="248.60001">S</text>
    </g>
    <g
       class="edge"
       id="edge7"
       transform="translate(10.404218,273.63534)">
      <title
         id="title166">SL2-&gt;S2</title>
      <path
         style="fill:none;stroke:#000000"
         id="path168"
         d="m 258.628,-182.958 c 3.145,4.718 6.698,10.047 10.143,15.214" />
      <polygon
         style="fill:#000000;stroke:#000000"
         id="polygon170"
         points="271.741,-169.599 274.376,-159.337 265.916,-165.716 271.741,-169.599 " />
    </g>
    <g
       class="node"
       id="node18"
       transform="translate(10.404218,273.63534)">
      <title
         id="title173">dot1b</title>
      <ellipse
         style="fill:#000000;stroke:#000000"
         sodipodi:ry="7"
         sodipodi:rx="7"
         sodipodi:cy="-144"
         sodipodi:cx="227"
         d="m 234,-144 c 0,3.86599 -3.13401,7 -7,7 -3.86599,0 -7,-3.13401 -7,-7 0,-3.86599 3.13401,-7 7,-7 3.86599,0 7,3.13401 7,7 z"
         id="ellipse175"
         ry="7"
         rx="7"
         cy="-144"
         cx="227" />
    </g>
    <g
       class="edge"
       id="edge9"
       transform="translate(10.404218,273.63534)">
      <title
         id="title178">SL2-&gt;dot1b</title>
      <path
         style="fill:none;stroke:#000000"
         id="path180"
         d="m 241.884,-181.21 c -2.698,6.745 -5.795,14.488 -8.463,21.158" />
      <polygon
         style="fill:#000000;stroke:#000000"
         id="polygon182"
         points="236.664,-158.737 229.701,-150.752 230.165,-161.337 236.664,-158.737 " />
    </g>
    <g
       class="edge"
       id="edge11"
       transform="translate(10.404218,273.63534)">
      <title
         id="title185">SR2-&gt;dot3b</title>
      <path
         style="fill:none;stroke:#000000"
         id="path187"
         d="m 313.884,-73.2101 c -2.698,6.7456 -5.795,14.4882 -8.463,21.1579" />
      <polygon
         style="fill:#000000;stroke:#000000"
         id="polygon189"
         points="308.664,-50.737 301.701,-42.7521 302.165,-53.3367 308.664,-50.737 " />
    </g>
    <g
       class="edge"
       id="edge12"
       transform="translate(10.404218,273.63534)">
      <title
         id="title192">SR2-&gt;dot4b</title>
      <path
         style="fill:none;stroke:#000000"
         id="path194"
         d="m 327.316,-73.2101 c 2.698,6.7456 5.795,14.4882 8.463,21.1579" />
      <polygon
         style="fill:#000000;stroke:#000000"
         id="polygon196"
         points="339.035,-53.3367 339.499,-42.7521 332.536,-50.737 339.035,-53.3367 " />
    </g>
    <g
       class="node"
       id="node22"
       transform="translate(10.404218,273.63534)">
      <title
         id="title199">tri1b</title>
      <polygon
         style="fill:none;stroke:#000000"
         id="polygon201"
         points="227,-144 216,-117 238,-117 227,-144 " />
      <text
         style="font-size:14px;font-weight:bold;text-anchor:middle;font-family:'Helvetica,sans-Serif'"
         id="text203"
         font-size="14.00"
         font-weight="bold"
         y="-122.3"
         x="227">1</text>
    </g>
    <g
       class="node"
       id="node23"
       transform="translate(10.404218,273.63534)">
      <title
         id="title206">tri2b</title>
      <polygon
         style="fill:none;stroke:#000000"
         id="polygon208"
         points="263,-90 252,-63 274,-63 263,-90 " />
      <text
         style="font-size:14px;font-weight:bold;text-anchor:middle;font-family:'Helvetica,sans-Serif'"
         id="text210"
         font-size="14.00"
         font-weight="bold"
         y="-68.300003"
         x="263">2</text>
    </g>
    <g
       class="node"
       id="node24"
       transform="translate(10.404218,273.63534)">
      <title
         id="title213">tri3b</title>
      <polygon
         style="fill:none;stroke:#000000"
         id="polygon215"
         points="301.88,-42.48 290.88,-15.48 312.88,-15.48 301.88,-42.48 " />
      <text
         style="font-size:14px;font-weight:bold;text-anchor:middle;font-family:'Helvetica,sans-Serif'"
         id="text217"
         font-size="14.00"
         font-weight="bold"
         y="-20.780001"
         x="301.88">3</text>
    </g>
    <g
       class="node"
       id="node25"
       transform="translate(10.404218,273.63534)">
      <title
         id="title220">tri4b</title>
      <polygon
         style="fill:none;stroke:#000000"
         id="polygon222"
         points="339.32,-42.48 328.32,-15.48 350.32,-15.48 339.32,-42.48 " />
      <text
         style="font-size:14px;font-weight:bold;text-anchor:middle;font-family:'Helvetica,sans-Serif'"
         id="text224"
         font-size="14.00"
         font-weight="bold"
         y="-20.780001"
         x="339.32001">4</text>
    </g>
    <g
       transform="translate(226.19078,165.9386)"
       id="g3386"
       class="node">
      <title
         id="title3388">subscript1</title>
      <text
         x="41.240002"
         y="-83.18"
         font-weight="bold"
         font-size="10.00"
         id="text3390"
         style="font-size:10px;font-weight:bold;text-anchor:middle;fill:#ffffff;font-family:'Helvetica,sans-Serif'">L</text>
    </g>
    <g
       class="node"
       id="node13-1"
       transform="translate(226.49693,274.41007)">
      <title
         id="title116-7">subscript2</title>
      <text
         style="font-size:10px;font-weight:bold;text-anchor:middle;fill:#ffffff;font-family:'Helvetica,sans-Serif'"
         id="text118-4"
         font-size="10.00"
         font-weight="bold"
         y="-83.18"
         x="113.24">R</text>
    </g>
  </g>
  <g
     inkscape:groupmode="layer"
     id="layer3"
     inkscape:label="L"
     style="display:inline">
    <g
       class="node"
       id="node1"
       transform="translate(3.3595781,165.96906)">
      <title
         id="title10">S1</title>
      <ellipse
         style="fill:#000000;stroke:#000000"
         sodipodi:ry="18"
         sodipodi:rx="18"
         sodipodi:cy="-144"
         sodipodi:cx="68.599998"
         d="m 86.599998,-144 c 0,9.94113 -8.058874,18 -18,18 -9.941125,0 -18,-8.05887 -18,-18 0,-9.94113 8.058875,-18 18,-18 9.941126,0 18,8.05887 18,18 z"
         id="ellipse12"
         ry="18"
         rx="18"
         cy="-144"
         cx="68.599998" />
      <text
         style="font-size:14px;font-weight:bold;text-anchor:middle;fill:#ffffff;font-family:'Helvetica,sans-Serif'"
         id="text14"
         font-size="14.00"
         font-weight="bold"
         y="-140.3"
         x="68.599998">S</text>
    </g>
    <g
       class="node"
       id="node2"
       transform="translate(3.3595781,165.96906)">
      <title
         id="title17">SL1</title>
      <ellipse
         style="fill:#ff0000;stroke:#000000"
         sodipodi:ry="18"
         sodipodi:rx="18"
         sodipodi:cy="-90"
         sodipodi:cx="32.599998"
         d="m 50.599998,-90 c 0,9.941125 -8.058874,18 -18,18 -9.941125,0 -18,-8.058875 -18,-18 0,-9.941125 8.058875,-18 18,-18 9.941126,0 18,8.058875 18,18 z"
         id="ellipse19"
         ry="18"
         rx="18"
         cy="-90"
         cx="32.599998" />
      <text
         style="font-size:14px;font-weight:bold;text-anchor:middle;fill:#ffffff;font-family:'Helvetica,sans-Serif'"
         id="text21"
         font-size="14.00"
         font-weight="bold"
         y="-86.300003"
         x="32.599998">S</text>
    </g>
    <g
       class="edge"
       id="edge1"
       transform="translate(3.3595781,165.96906)">
      <title
         id="title24">S1-&gt;SL1</title>
      <path
         style="fill:none;stroke:#000000"
         id="path26"
         d="m 58.572,-128.958 c -3.1454,4.718 -6.6979,10.047 -10.1427,15.214" />
      <polygon
         style="fill:#000000;stroke:#000000"
         id="polygon28"
         points="51.2836,-111.716 51.2836,-111.716 42.8244,-105.337 45.4592,-115.599 " />
    </g>
    <g
       class="node"
       id="node3"
       transform="translate(3.3595781,165.96906)">
      <title
         id="title31">SR1</title>
      <ellipse
         style="fill:#000000;stroke:#000000"
         sodipodi:ry="18"
         sodipodi:rx="18"
         sodipodi:cy="-90"
         sodipodi:cx="104.6"
         d="m 122.6,-90 c 0,9.941125 -8.05888,18 -18,18 -9.941127,0 -18.000002,-8.058875 -18.000002,-18 0,-9.941125 8.058875,-18 18.000002,-18 9.94112,0 18,8.058875 18,18 z"
         id="ellipse33"
         ry="18"
         rx="18"
         cy="-90"
         cx="104.6" />
      <text
         style="font-size:14px;font-weight:bold;text-anchor:middle;fill:#ffffff;font-family:'Helvetica,sans-Serif'"
         id="text35"
         font-size="14.00"
         font-weight="bold"
         y="-86.300003"
         x="104.6">S</text>
    </g>
    <g
       class="edge"
       id="edge2"
       transform="translate(3.3595781,165.96906)">
      <title
         id="title38">S1-&gt;SR1</title>
      <path
         style="fill:none;stroke:#000000"
         id="path40"
         d="m 78.628,-128.958 c 3.1455,4.718 6.6979,10.047 10.1427,15.214" />
      <polygon
         style="fill:#000000;stroke:#000000"
         id="polygon42"
         points="91.7408,-115.599 91.7408,-115.599 94.3756,-105.337 85.9164,-111.716 " />
    </g>
    <g
       class="node"
       id="node4"
       transform="translate(3.3595781,165.96906)">
      <title
         id="title45">dot1</title>
      <ellipse
         style="fill:#000000;stroke:#000000"
         sodipodi:ry="7"
         sodipodi:rx="7"
         sodipodi:cy="-36"
         sodipodi:cx="11"
         d="m 18,-36 c 0,3.865993 -3.134007,7 -7,7 -3.8659932,0 -7,-3.134007 -7,-7 0,-3.865993 3.1340068,-7 7,-7 3.865993,0 7,3.134007 7,7 z"
         id="ellipse47"
         ry="7"
         rx="7"
         cy="-36"
         cx="11" />
    </g>
    <g
       class="edge"
       id="edge3"
       transform="translate(3.3595781,165.96906)">
      <title
         id="title50">SL1-&gt;dot1</title>
      <path
         style="fill:none;stroke:#000000"
         id="path52"
         d="m 25.884,-73.2101 c -2.6982,6.7456 -5.7952,14.4882 -8.4631,21.1579" />
      <polygon
         style="fill:#000000;stroke:#000000"
         id="polygon54"
         points="20.6645,-50.737 20.6645,-50.737 13.7008,-42.7521 14.1651,-53.3367 " />
    </g>
    <g
       class="node"
       id="node5"
       transform="translate(3.3595781,165.96906)">
      <title
         id="title57">dot2</title>
      <ellipse
         style="fill:#000000;stroke:#000000"
         sodipodi:ry="7"
         sodipodi:rx="7"
         sodipodi:cy="-36"
         sodipodi:cx="54.200001"
         d="m 61.200001,-36 c 0,3.865993 -3.134007,7 -7,7 -3.865993,0 -7,-3.134007 -7,-7 0,-3.865993 3.134007,-7 7,-7 3.865993,0 7,3.134007 7,7 z"
         id="ellipse59"
         ry="7"
         rx="7"
         cy="-36"
         cx="54.200001" />
    </g>
    <g
       class="edge"
       id="edge4"
       transform="translate(3.3595781,165.96906)">
      <title
         id="title62">SL1-&gt;dot2</title>
      <path
         style="fill:none;stroke:#000000"
         id="path64"
         d="m 39.316,-73.2101 c 2.6982,6.7456 5.7953,14.4882 8.4631,21.1579" />
      <polygon
         style="fill:#000000;stroke:#000000"
         id="polygon66"
         points="51.0349,-53.3367 51.0349,-53.3367 51.4992,-42.7521 44.5355,-50.737 " />
    </g>
    <g
       class="edge"
       id="edge5"
       transform="translate(3.3595781,165.96906)">
      <title
         id="title69">SR1-&gt;dot3</title>
      <path
         style="fill:none;stroke:#000000"
         id="path71"
         d="m 97.884,-73.2101 c -2.6982,6.7456 -5.7952,14.4882 -8.4631,21.1579" />
      <polygon
         style="fill:#000000;stroke:#000000"
         id="polygon73"
         points="92.6645,-50.737 92.6645,-50.737 85.7008,-42.7521 86.1651,-53.3367 " />
    </g>
    <g
       class="edge"
       id="edge6"
       transform="translate(3.3595781,165.96906)">
      <title
         id="title76">SR1-&gt;dot4</title>
      <path
         style="fill:none;stroke:#000000"
         id="path78"
         d="m 111.316,-73.2101 c 2.698,6.7456 5.795,14.4882 8.463,21.1579" />
      <polygon
         style="fill:#000000;stroke:#000000"
         id="polygon80"
         points="123.035,-53.3367 123.035,-53.3367 123.499,-42.7521 116.536,-50.737 " />
    </g>
    <g
       class="node"
       id="node8"
       transform="translate(3.3595781,165.96906)">
      <title
         id="title83">tri1</title>
      <polygon
         style="fill:none;stroke:#000000"
         id="polygon85"
         points="11,-36 11,-36 -1.77636e-15,-9 22,-9 " />
      <text
         style="font-size:14px;font-weight:bold;text-anchor:middle;font-family:'Helvetica,sans-Serif'"
         id="text87"
         font-size="14.00"
         font-weight="bold"
         y="-14.3"
         x="11">1</text>
    </g>
    <g
       class="node"
       id="node9"
       transform="translate(3.3595781,165.96906)">
      <title
         id="title90">tri2</title>
      <polygon
         style="fill:none;stroke:#000000"
         id="polygon92"
         points="54.2,-36 54.2,-36 43.2,-9 65.2,-9 " />
      <text
         style="font-size:14px;font-weight:bold;text-anchor:middle;font-family:'Helvetica,sans-Serif'"
         id="text94"
         font-size="14.00"
         font-weight="bold"
         y="-14.3"
         x="54.200001">2</text>
    </g>
    <g
       class="node"
       id="node10"
       transform="translate(3.3595781,165.96906)">
      <title
         id="title97">tri3</title>
      <polygon
         style="fill:none;stroke:#000000"
         id="polygon99"
         points="85.88,-42.48 85.88,-42.48 74.88,-15.48 96.88,-15.48 " />
      <text
         style="font-size:14px;font-weight:bold;text-anchor:middle;font-family:'Helvetica,sans-Serif'"
         id="text101"
         font-size="14.00"
         font-weight="bold"
         y="-20.780001"
         x="85.879997">3</text>
    </g>
    <g
       class="node"
       id="node11"
       transform="translate(3.3595781,165.96906)">
      <title
         id="title104">tri4</title>
      <polygon
         style="fill:none;stroke:#000000"
         id="polygon106"
         points="123.32,-42.48 123.32,-42.48 112.32,-15.48 134.32,-15.48 " />
      <text
         style="font-size:14px;font-weight:bold;text-anchor:middle;font-family:'Helvetica,sans-Serif'"
         id="text108"
         font-size="14.00"
         font-weight="bold"
         y="-20.780001"
         x="123.32">4</text>
    </g>
    <g
       class="node"
       id="node12"
       transform="translate(3.3595781,165.96906)">
      <title
         id="title111">subscript1</title>
      <text
         style="font-size:10px;font-weight:bold;text-anchor:middle;fill:#ffffff;font-family:'Helvetica,sans-Serif'"
         id="text113"
         font-size="10.00"
         font-weight="bold"
         y="-83.18"
         x="41.240002">L</text>
    </g>
    <g
       class="node"
       id="node13"
       transform="translate(3.3595781,165.96906)">
      <title
         id="title116">subscript2</title>
      <text
         style="font-size:10px;font-weight:bold;text-anchor:middle;fill:#ffffff;font-family:'Helvetica,sans-Serif'"
         id="text118"
         font-size="10.00"
         font-weight="bold"
         y="-83.18"
         x="113.24">R</text>
    </g>
    <g
       class="node"
       id="node14"
       transform="translate(3.3595781,165.96906)">
      <title
         id="title121">arrow</title>
      <polygon
         style="fill:#0000ff;stroke:#000000"
         id="polygon123"
         points="194.6,-96 194.6,-90 212.6,-108 194.6,-126 194.6,-120 194.6,-120 140.6,-120 140.6,-96 " />
    </g>
  </g>
</svg>
