<?xml version="1.0" encoding="UTF-8" standalone="no"?>
<!-- Generated by graphviz version 2.36.0 (20140111.2315)
 -->

<!-- Title: G Pages: 1 -->

<svg
   xmlns:dc="http://purl.org/dc/elements/1.1/"
   xmlns:cc="http://creativecommons.org/ns#"
   xmlns:rdf="http://www.w3.org/1999/02/22-rdf-syntax-ns#"
   xmlns:svg="http://www.w3.org/2000/svg"
   xmlns="http://www.w3.org/2000/svg"
   xmlns:sodipodi="http://sodipodi.sourceforge.net/DTD/sodipodi-0.dtd"
   xmlns:inkscape="http://www.inkscape.org/namespaces/inkscape"
   width="773.50006"
   height="244.99998"
   viewBox="0 0 619.19927 196.19028"
   id="svg2"
   version="1.1"
   inkscape:version="0.47 r22583"
   sodipodi:docname="Red-black_tree_insert_case_4.svg">
  <metadata
     id="metadata286">
    <rdf:RDF>
      <cc:Work
         rdf:about="">
        <dc:format>image/svg+xml</dc:format>
        <dc:type
           rdf:resource="http://purl.org/dc/dcmitype/StillImage" />
      </cc:Work>
    </rdf:RDF>
  </metadata>
  <defs
     id="defs284">
    <inkscape:perspective
       sodipodi:type="inkscape:persp3d"
       inkscape:vp_x="0 : 128.75 : 1"
       inkscape:vp_y="0 : 1000 : 0"
       inkscape:vp_z="775 : 128.75 : 1"
       inkscape:persp3d-origin="387.5 : 85.833333 : 1"
       id="perspective288" />
    <inkscape:perspective
       id="perspective2975"
       inkscape:persp3d-origin="0.5 : 0.33333333 : 1"
       inkscape:vp_z="1 : 0.5 : 1"
       inkscape:vp_y="0 : 1000 : 0"
       inkscape:vp_x="0 : 0.5 : 1"
       sodipodi:type="inkscape:persp3d" />
    <inkscape:perspective
       id="perspective3066"
       inkscape:persp3d-origin="0.5 : 0.33333333 : 1"
       inkscape:vp_z="1 : 0.5 : 1"
       inkscape:vp_y="0 : 1000 : 0"
       inkscape:vp_x="0 : 0.5 : 1"
       sodipodi:type="inkscape:persp3d" />
    <inkscape:perspective
       id="perspective3465"
       inkscape:persp3d-origin="0.5 : 0.33333333 : 1"
       inkscape:vp_z="1 : 0.5 : 1"
       inkscape:vp_y="0 : 1000 : 0"
       inkscape:vp_x="0 : 0.5 : 1"
       sodipodi:type="inkscape:persp3d" />
    <inkscape:perspective
       id="perspective3487"
       inkscape:persp3d-origin="0.5 : 0.33333333 : 1"
       inkscape:vp_z="1 : 0.5 : 1"
       inkscape:vp_y="0 : 1000 : 0"
       inkscape:vp_x="0 : 0.5 : 1"
       sodipodi:type="inkscape:persp3d" />
  </defs>
  <sodipodi:namedview
     pagecolor="#ffffff"
     bordercolor="#666666"
     borderopacity="1"
     objecttolerance="10"
     gridtolerance="10"
     guidetolerance="10"
     inkscape:pageopacity="0"
     inkscape:pageshadow="2"
     inkscape:window-width="1244"
     inkscape:window-height="693"
     id="namedview282"
     showgrid="false"
     inkscape:zoom="1"
     inkscape:cx="383.50882"
     inkscape:cy="54.328209"
     inkscape:window-x="65"
     inkscape:window-y="150"
     inkscape:window-maximized="0"
     inkscape:current-layer="layer1"
     borderlayer="true" />
  <g
     inkscape:groupmode="layer"
     id="layer2"
     inkscape:label="corners"
     transform="translate(0.60077309,4.7683716e-7)"
     style="display:none">
    <rect
       style="opacity:0.7;fill:#000000;stroke:#ffffff;stroke-width:6.40621376;stroke-linecap:butt;stroke-miterlimit:4;stroke-dasharray:38.43728075, 38.43728075;stroke-dashoffset:0;display:inline"
       id="rect2980"
       width="1.2011651"
       height="0.80077672"
       x="614.29498"
       y="3.2031064" />
    <rect
       style="opacity:0.7;fill:#000000;stroke:#ffffff;stroke-width:6.40621376;stroke-linecap:butt;stroke-miterlimit:4;stroke-dasharray:38.43728122, 38.43728122;stroke-dashoffset:0;display:inline"
       id="rect2980-1"
       width="1.2011651"
       height="0.80077672"
       x="2.5015545"
       y="192.1864" />
  </g>
  <g
     inkscape:groupmode="layer"
     id="layer1"
     inkscape:label="all"
     transform="translate(0.60077309,4.7683716e-7)"
     style="display:inline">
    <polygon
       style="fill:#ffffff;stroke:none"
       id="polygon7"
       points="616.4,-202.198 616.4,4 -4,4 -4,4 -4,-202.198 "
       transform="translate(4,202.198)" />
    <g
       class="node"
       id="node1"
       transform="translate(4,202.198)">
      <title
         id="title10">G1</title>
      <ellipse
         style="fill:#000000;stroke:#000000"
         sodipodi:ry="18.399"
         sodipodi:rx="18.399"
         sodipodi:cy="-180"
         sodipodi:cx="119"
         d="m 137.399,-180 c 0,10.16149 -8.23751,18.399 -18.399,18.399 -10.16149,0 -18.399,-8.23751 -18.399,-18.399 0,-10.16149 8.23751,-18.399 18.399,-18.399 10.16149,0 18.399,8.23751 18.399,18.399 z"
         id="ellipse12"
         ry="18.399"
         rx="18.399"
         cy="-180"
         cx="119" />
      <text
         style="font-size:14px;font-weight:bold;text-anchor:middle;fill:#ffffff;font-family:'Helvetica,sans-Serif'"
         id="text14"
         font-size="14.00"
         font-weight="bold"
         y="-176.3"
         x="119">G</text>
    </g>
    <g
       class="node"
       id="node2"
       transform="translate(4,202.198)">
      <title
         id="title17">P1</title>
      <ellipse
         style="fill:#ff0000;stroke:#000000"
         sodipodi:ry="18"
         sodipodi:rx="18"
         sodipodi:cy="-144"
         sodipodi:cx="47"
         d="m 65,-144 c 0,9.94113 -8.058875,18 -18,18 -9.941125,0 -18,-8.05887 -18,-18 0,-9.94113 8.058875,-18 18,-18 9.941125,0 18,8.05887 18,18 z"
         id="ellipse19"
         ry="18"
         rx="18"
         cy="-144"
         cx="47" />
      <text
         style="font-size:14px;font-weight:bold;text-anchor:middle;fill:#ffffff;font-family:'Helvetica,sans-Serif'"
         id="text21"
         font-size="14.00"
         font-weight="bold"
         y="-140.3"
         x="47">P</text>
    </g>
    <g
       class="edge"
       id="edge1"
       transform="translate(4,202.198)">
      <title
         id="title24">G1-&gt;P1</title>
      <path
         style="fill:none;stroke:#000000"
         id="path26"
         d="m 102.662,-171.831 c -8.9294,4.465 -20.187,10.094 -30.2377,15.119" />
      <polygon
         style="fill:#000000;stroke:#000000"
         id="polygon28"
         points="73.7828,-153.478 73.7828,-153.478 63.2733,-152.137 70.6523,-159.739 " />
    </g>
    <g
       class="node"
       id="node3"
       transform="translate(4,202.198)">
      <title
         id="title31">U1</title>
      <ellipse
         style="fill:#000000;stroke:#000000"
         sodipodi:ry="18"
         sodipodi:rx="18"
         sodipodi:cy="-144"
         sodipodi:cx="191"
         d="m 209,-144 c 0,9.94113 -8.05887,18 -18,18 -9.94113,0 -18,-8.05887 -18,-18 0,-9.94113 8.05887,-18 18,-18 9.94113,0 18,8.05887 18,18 z"
         id="ellipse33"
         ry="18"
         rx="18"
         cy="-144"
         cx="191" />
      <text
         style="font-size:14px;font-weight:bold;text-anchor:middle;fill:#ffffff;font-family:'Helvetica,sans-Serif'"
         id="text35"
         font-size="14.00"
         font-weight="bold"
         y="-140.3"
         x="191">U</text>
    </g>
    <g
       class="edge"
       id="edge2"
       transform="translate(4,202.198)">
      <title
         id="title38">G1-&gt;U1</title>
      <path
         style="fill:none;stroke:#000000"
         id="path40"
         d="m 135.338,-171.831 c 8.929,4.465 20.187,10.094 30.238,15.119" />
      <polygon
         style="fill:#000000;stroke:#000000"
         id="polygon42"
         points="167.348,-159.739 167.348,-159.739 174.727,-152.137 164.217,-153.478 " />
    </g>
    <ellipse
       cx="83"
       cy="-90"
       rx="18"
       ry="18"
       id="ellipse47"
       d="m 101,-90 c 0,9.941125 -8.058875,18 -18,18 -9.941125,0 -18,-8.058875 -18,-18 0,-9.941125 8.058875,-18 18,-18 9.941125,0 18,8.058875 18,18 z"
       sodipodi:cx="83"
       sodipodi:cy="-90"
       sodipodi:rx="18"
       sodipodi:ry="18"
       style="fill:#ff0000;stroke:#0000ff;stroke-width:1.60155341"
       transform="translate(4,202.198)" />
    <text
       x="87"
       y="115.89798"
       font-weight="bold"
       font-size="14.00"
       id="text49"
       style="font-size:14px;font-weight:bold;text-anchor:middle;fill:#ffffff;font-family:'Helvetica,sans-Serif'">N</text>
    <g
       class="edge"
       id="edge3"
       transform="translate(4,202.198)">
      <title
         id="title52">P1-&gt;N1</title>
      <path
         style="fill:none;stroke:#000000"
         id="path54"
         d="m 57.028,-128.958 c 3.1454,4.718 6.6979,10.047 10.1427,15.214" />
      <polygon
         style="fill:#000000;stroke:#000000"
         id="polygon56"
         points="70.1408,-115.599 70.1408,-115.599 72.7756,-105.337 64.3164,-111.716 " />
    </g>
    <g
       class="node"
       id="node5"
       transform="translate(4,202.198)">
      <title
         id="title59">dot1</title>
      <ellipse
         style="fill:#000000;stroke:#000000"
         sodipodi:ry="7"
         sodipodi:rx="7"
         sodipodi:cy="-90"
         sodipodi:cx="11"
         d="m 18,-90 c 0,3.865993 -3.134007,7 -7,7 -3.8659932,0 -7,-3.134007 -7,-7 0,-3.865993 3.1340068,-7 7,-7 3.865993,0 7,3.134007 7,7 z"
         id="ellipse61"
         ry="7"
         rx="7"
         cy="-90"
         cx="11" />
    </g>
    <g
       class="edge"
       id="edge6"
       transform="translate(4,202.198)">
      <title
         id="title64">P1-&gt;dot1</title>
      <path
         style="fill:none;stroke:#000000"
         id="path66"
         d="m 36.972,-128.958 c -5.0907,7.636 -11.2475,16.871 -16.2887,24.433" />
      <polygon
         style="fill:#000000;stroke:#000000"
         id="polygon68"
         points="23.5178,-102.467 23.5178,-102.467 15.0586,-96.0879 17.6935,-106.35 " />
    </g>
    <g
       class="edge"
       id="edge7"
       transform="translate(4,202.198)">
      <title
         id="title71">U1-&gt;dot4</title>
      <path
         style="fill:none;stroke:#000000"
         id="path73"
         d="m 180.972,-128.958 c -5.091,7.636 -11.247,16.871 -16.289,24.433" />
      <polygon
         style="fill:#000000;stroke:#000000"
         id="polygon75"
         points="167.518,-102.467 167.518,-102.467 159.059,-96.0879 161.693,-106.35 " />
    </g>
    <g
       class="edge"
       id="edge8"
       transform="translate(4,202.198)">
      <title
         id="title78">U1-&gt;dot5</title>
      <path
         style="fill:none;stroke:#000000"
         id="path80"
         d="m 201.028,-128.958 c 5.091,7.636 11.247,16.871 16.289,24.433" />
      <polygon
         style="fill:#000000;stroke:#000000"
         id="polygon82"
         points="220.307,-106.35 220.307,-106.35 222.941,-96.0879 214.482,-102.467 " />
    </g>
    <g
       class="node"
       id="node6"
       transform="translate(4,202.198)">
      <title
         id="title85">dot2</title>
      <ellipse
         style="fill:#000000;stroke:#000000"
         sodipodi:ry="7"
         sodipodi:rx="7"
         sodipodi:cy="-36"
         sodipodi:cx="47"
         d="m 54,-36 c 0,3.865993 -3.134007,7 -7,7 -3.865993,0 -7,-3.134007 -7,-7 0,-3.865993 3.134007,-7 7,-7 3.865993,0 7,3.134007 7,7 z"
         id="ellipse87"
         ry="7"
         rx="7"
         cy="-36"
         cx="47" />
    </g>
    <g
       class="edge"
       id="edge4"
       transform="translate(4,202.198)">
      <title
         id="title90">N1-&gt;dot2</title>
      <path
         style="fill:none;stroke:#000000"
         id="path92"
         d="m 72.972,-74.958 c -5.0907,7.6361 -11.2475,16.8712 -16.2887,24.4331" />
      <polygon
         style="fill:#000000;stroke:#000000"
         id="polygon94"
         points="59.5178,-48.4669 59.5178,-48.4669 51.0586,-42.0879 53.6935,-52.3499 " />
    </g>
    <g
       class="node"
       id="node7"
       transform="translate(4,202.198)">
      <title
         id="title97">dot3</title>
      <ellipse
         style="fill:#000000;stroke:#000000"
         sodipodi:ry="7"
         sodipodi:rx="7"
         sodipodi:cy="-36"
         sodipodi:cx="119"
         d="m 126,-36 c 0,3.865993 -3.13401,7 -7,7 -3.86599,0 -7,-3.134007 -7,-7 0,-3.865993 3.13401,-7 7,-7 3.86599,0 7,3.134007 7,7 z"
         id="ellipse99"
         ry="7"
         rx="7"
         cy="-36"
         cx="119" />
    </g>
    <g
       class="edge"
       id="edge5"
       transform="translate(4,202.198)">
      <title
         id="title102">N1-&gt;dot3</title>
      <path
         style="fill:none;stroke:#000000"
         id="path104"
         d="m 93.028,-74.958 c 5.0907,7.6361 11.247,16.8712 16.289,24.4331" />
      <polygon
         style="fill:#000000;stroke:#000000"
         id="polygon106"
         points="112.307,-52.3499 112.307,-52.3499 114.941,-42.0879 106.482,-48.4669 " />
    </g>
    <g
       class="node"
       id="node10"
       transform="translate(4,202.198)">
      <title
         id="title109">tri1</title>
      <polygon
         style="fill:none;stroke:#000000"
         id="polygon111"
         points="11,-90 11,-90 -1.77636e-15,-63 22,-63 " />
      <text
         style="font-size:14px;font-weight:bold;text-anchor:middle;font-family:'Helvetica,sans-Serif'"
         id="text113"
         font-size="14.00"
         font-weight="bold"
         y="-68.300003"
         x="11">1</text>
    </g>
    <g
       class="node"
       id="node11"
       transform="translate(4,202.198)">
      <title
         id="title116">tri2</title>
      <polygon
         style="fill:none;stroke:#000000"
         id="polygon118"
         points="47,-36 47,-36 36,-9 58,-9 " />
      <text
         style="font-size:14px;font-weight:bold;text-anchor:middle;font-family:'Helvetica,sans-Serif'"
         id="text120"
         font-size="14.00"
         font-weight="bold"
         y="-14.3"
         x="47">2</text>
    </g>
    <g
       class="node"
       id="node12"
       transform="translate(4,202.198)">
      <title
         id="title123">tri3</title>
      <polygon
         style="fill:none;stroke:#000000"
         id="polygon125"
         points="119,-36 119,-36 108,-9 130,-9 " />
      <text
         style="font-size:14px;font-weight:bold;text-anchor:middle;font-family:'Helvetica,sans-Serif'"
         id="text127"
         font-size="14.00"
         font-weight="bold"
         y="-14.3"
         x="119">3</text>
    </g>
    <g
       class="node"
       id="node13"
       transform="translate(4,202.198)">
      <title
         id="title130">tri4</title>
      <polygon
         style="fill:none;stroke:#000000"
         id="polygon132"
         points="158.6,-95.76 158.6,-95.76 147.6,-68.76 169.6,-68.76 " />
      <text
         style="font-size:14px;font-weight:bold;text-anchor:middle;font-family:'Helvetica,sans-Serif'"
         id="text134"
         font-size="14.00"
         font-weight="bold"
         y="-74.059998"
         x="158.60001">4</text>
    </g>
    <g
       class="node"
       id="node14"
       transform="translate(4,202.198)">
      <title
         id="title137">tri5</title>
      <polygon
         style="fill:none;stroke:#000000"
         id="polygon139"
         points="223.4,-95.76 223.4,-95.76 212.4,-68.76 234.4,-68.76 " />
      <text
         style="font-size:14px;font-weight:bold;text-anchor:middle;font-family:'Helvetica,sans-Serif'"
         id="text141"
         font-size="14.00"
         font-weight="bold"
         y="-74.059998"
         x="223.39999">5</text>
    </g>
    <g
       class="node"
       id="node15"
       transform="translate(4,202.198)">
      <title
         id="title144">arrow</title>
      <polygon
         style="fill:#0000ff;stroke:#000000"
         id="polygon146"
         points="317,-78 317,-72 335,-90 317,-108 317,-102 317,-102 263,-102 263,-78 " />
    </g>
    <g
       class="node"
       id="node16"
       transform="translate(4,202.198)">
      <title
         id="title149">G2</title>
      <ellipse
         style="fill:#000000;stroke:#000000"
         sodipodi:ry="18.399"
         sodipodi:rx="18.399"
         sodipodi:cy="-180"
         sodipodi:cx="497"
         d="m 515.399,-180 c 0,10.16149 -8.23751,18.399 -18.399,18.399 -10.16149,0 -18.399,-8.23751 -18.399,-18.399 0,-10.16149 8.23751,-18.399 18.399,-18.399 10.16149,0 18.399,8.23751 18.399,18.399 z"
         id="ellipse151"
         ry="18.399"
         rx="18.399"
         cy="-180"
         cx="497" />
      <text
         style="font-size:14px;font-weight:bold;text-anchor:middle;fill:#ffffff;font-family:'Helvetica,sans-Serif'"
         id="text153"
         font-size="14.00"
         font-weight="bold"
         y="-176.3"
         x="497">G</text>
    </g>
    <g
       class="node"
       id="node18"
       transform="translate(4,202.198)">
      <title
         id="title156">U2</title>
      <ellipse
         style="fill:#000000;stroke:#000000"
         sodipodi:ry="18"
         sodipodi:rx="18"
         sodipodi:cy="-144"
         sodipodi:cx="569"
         d="m 587,-144 c 0,9.94113 -8.05887,18 -18,18 -9.94113,0 -18,-8.05887 -18,-18 0,-9.94113 8.05887,-18 18,-18 9.94113,0 18,8.05887 18,18 z"
         id="ellipse158"
         ry="18"
         rx="18"
         cy="-144"
         cx="569" />
      <text
         style="font-size:14px;font-weight:bold;text-anchor:middle;fill:#ffffff;font-family:'Helvetica,sans-Serif'"
         id="text160"
         font-size="14.00"
         font-weight="bold"
         y="-140.3"
         x="569">U</text>
    </g>
    <g
       class="edge"
       id="edge10"
       transform="translate(4,202.198)">
      <title
         id="title163">G2-&gt;U2</title>
      <path
         style="fill:none;stroke:#000000"
         id="path165"
         d="m 513.338,-171.831 c 8.929,4.465 20.187,10.094 30.238,15.119" />
      <polygon
         style="fill:#000000;stroke:#000000"
         id="polygon167"
         points="545.348,-159.739 545.348,-159.739 552.727,-152.137 542.217,-153.478 " />
    </g>
    <g
       class="node"
       id="node19"
       transform="translate(4,202.198)">
      <title
         id="title170">N2</title>
      <ellipse
         style="fill:#ff0000;stroke:#000000"
         sodipodi:ry="18"
         sodipodi:rx="18"
         sodipodi:cy="-144"
         sodipodi:cx="425"
         d="m 443,-144 c 0,9.94113 -8.05887,18 -18,18 -9.94113,0 -18,-8.05887 -18,-18 0,-9.94113 8.05887,-18 18,-18 9.94113,0 18,8.05887 18,18 z"
         id="ellipse172"
         ry="18"
         rx="18"
         cy="-144"
         cx="425" />
      <text
         style="font-size:14px;font-weight:bold;text-anchor:middle;fill:#ffffff;font-family:'Helvetica,sans-Serif'"
         id="text174"
         font-size="14.00"
         font-weight="bold"
         y="-140.3"
         x="425">N</text>
    </g>
    <g
       class="edge"
       id="edge9"
       transform="translate(4,202.198)">
      <title
         id="title177">G2-&gt;N2</title>
      <path
         style="fill:none;stroke:#000000"
         id="path179"
         d="m 480.662,-171.831 c -8.929,4.465 -20.187,10.094 -30.238,15.119" />
      <polygon
         style="fill:#000000;stroke:#000000"
         id="polygon181"
         points="451.783,-153.478 451.783,-153.478 441.273,-152.137 448.652,-159.739 " />
    </g>
    <ellipse
       cx="389"
       cy="-90"
       rx="18"
       ry="18"
       id="ellipse186"
       d="m 407,-90 c 0,9.941125 -8.05887,18 -18,18 -9.94113,0 -18,-8.058875 -18,-18 0,-9.941125 8.05887,-18 18,-18 9.94113,0 18,8.058875 18,18 z"
       sodipodi:cx="389"
       sodipodi:cy="-90"
       sodipodi:rx="18"
       sodipodi:ry="18"
       style="fill:#ff0000;stroke:#0000ff;stroke-width:1.60155341"
       transform="translate(4,202.198)" />
    <text
       x="393.00003"
       y="115.89798"
       font-weight="bold"
       font-size="14.00"
       id="text188"
       style="font-size:14px;font-weight:bold;text-anchor:middle;fill:#ffffff;font-family:'Helvetica,sans-Serif'">P</text>
    <g
       class="node"
       id="node20"
       transform="translate(4,202.198)">
      <title
         id="title191">dot1b</title>
      <ellipse
         style="fill:#000000;stroke:#000000"
         sodipodi:ry="7"
         sodipodi:rx="7"
         sodipodi:cy="-36"
         sodipodi:cx="353"
         d="m 360,-36 c 0,3.865993 -3.13401,7 -7,7 -3.86599,0 -7,-3.134007 -7,-7 0,-3.865993 3.13401,-7 7,-7 3.86599,0 7,3.134007 7,7 z"
         id="ellipse193"
         ry="7"
         rx="7"
         cy="-36"
         cx="353" />
    </g>
    <g
       class="edge"
       id="edge14"
       transform="translate(4,202.198)">
      <title
         id="title196">P2-&gt;dot1b</title>
      <path
         style="fill:none;stroke:#000000"
         id="path198"
         d="m 378.972,-74.958 c -5.091,7.6361 -11.247,16.8712 -16.289,24.4331" />
      <polygon
         style="fill:#000000;stroke:#000000"
         id="polygon200"
         points="365.518,-48.4669 365.518,-48.4669 357.059,-42.0879 359.693,-52.3499 " />
    </g>
    <g
       class="node"
       id="node21"
       transform="translate(4,202.198)">
      <title
         id="title203">dot2b</title>
      <ellipse
         style="fill:#000000;stroke:#000000"
         sodipodi:ry="7"
         sodipodi:rx="7"
         sodipodi:cy="-36"
         sodipodi:cx="425"
         d="m 432,-36 c 0,3.865993 -3.13401,7 -7,7 -3.86599,0 -7,-3.134007 -7,-7 0,-3.865993 3.13401,-7 7,-7 3.86599,0 7,3.134007 7,7 z"
         id="ellipse205"
         ry="7"
         rx="7"
         cy="-36"
         cx="425" />
    </g>
    <g
       class="edge"
       id="edge13"
       transform="translate(4,202.198)">
      <title
         id="title208">P2-&gt;dot2b</title>
      <path
         style="fill:none;stroke:#000000"
         id="path210"
         d="m 399.028,-74.958 c 5.091,7.6361 11.247,16.8712 16.289,24.4331" />
      <polygon
         style="fill:#000000;stroke:#000000"
         id="polygon212"
         points="418.307,-52.3499 418.307,-52.3499 420.941,-42.0879 412.482,-48.4669 " />
    </g>
    <g
       class="edge"
       id="edge15"
       transform="translate(4,202.198)">
      <title
         id="title215">U2-&gt;dot4b</title>
      <path
         style="fill:none;stroke:#000000"
         id="path217"
         d="m 558.972,-128.958 c -5.091,7.636 -11.247,16.871 -16.289,24.433" />
      <polygon
         style="fill:#000000;stroke:#000000"
         id="polygon219"
         points="545.518,-102.467 545.518,-102.467 537.059,-96.0879 539.693,-106.35 " />
    </g>
    <g
       class="edge"
       id="edge16"
       transform="translate(4,202.198)">
      <title
         id="title222">U2-&gt;dot5b</title>
      <path
         style="fill:none;stroke:#000000"
         id="path224"
         d="m 579.028,-128.958 c 5.091,7.636 11.247,16.871 16.289,24.433" />
      <polygon
         style="fill:#000000;stroke:#000000"
         id="polygon226"
         points="598.307,-106.35 598.307,-106.35 600.941,-96.0879 592.482,-102.467 " />
    </g>
    <g
       class="edge"
       id="edge11"
       transform="translate(4,202.198)">
      <title
         id="title229">N2-&gt;P2</title>
      <path
         style="fill:none;stroke:#000000"
         id="path231"
         d="m 414.972,-128.958 c -3.145,4.718 -6.698,10.047 -10.143,15.214" />
      <polygon
         style="fill:#000000;stroke:#000000"
         id="polygon233"
         points="407.684,-111.716 407.684,-111.716 399.224,-105.337 401.859,-115.599 " />
    </g>
    <g
       class="node"
       id="node22"
       transform="translate(4,202.198)">
      <title
         id="title236">dot3b</title>
      <ellipse
         style="fill:#000000;stroke:#000000"
         sodipodi:ry="7"
         sodipodi:rx="7"
         sodipodi:cy="-90"
         sodipodi:cx="461"
         d="m 468,-90 c 0,3.865993 -3.13401,7 -7,7 -3.86599,0 -7,-3.134007 -7,-7 0,-3.865993 3.13401,-7 7,-7 3.86599,0 7,3.134007 7,7 z"
         id="ellipse238"
         ry="7"
         rx="7"
         cy="-90"
         cx="461" />
    </g>
    <g
       class="edge"
       id="edge12"
       transform="translate(4,202.198)">
      <title
         id="title241">N2-&gt;dot3b</title>
      <path
         style="fill:none;stroke:#000000"
         id="path243"
         d="m 435.028,-128.958 c 5.091,7.636 11.247,16.871 16.289,24.433" />
      <polygon
         style="fill:#000000;stroke:#000000"
         id="polygon245"
         points="454.307,-106.35 454.307,-106.35 456.941,-96.0879 448.482,-102.467 " />
    </g>
    <g
       class="node"
       id="node25"
       transform="translate(4,202.198)">
      <title
         id="title248">tri1b</title>
      <polygon
         style="fill:none;stroke:#000000"
         id="polygon250"
         points="353,-36 353,-36 342,-9 364,-9 " />
      <text
         style="font-size:14px;font-weight:bold;text-anchor:middle;font-family:'Helvetica,sans-Serif'"
         id="text252"
         font-size="14.00"
         font-weight="bold"
         y="-14.3"
         x="353">1</text>
    </g>
    <g
       class="node"
       id="node26"
       transform="translate(4,202.198)">
      <title
         id="title255">tri2b</title>
      <polygon
         style="fill:none;stroke:#000000"
         id="polygon257"
         points="425,-36 425,-36 414,-9 436,-9 " />
      <text
         style="font-size:14px;font-weight:bold;text-anchor:middle;font-family:'Helvetica,sans-Serif'"
         id="text259"
         font-size="14.00"
         font-weight="bold"
         y="-14.3"
         x="425">2</text>
    </g>
    <g
       class="node"
       id="node27"
       transform="translate(4,202.198)">
      <title
         id="title262">tri3b</title>
      <polygon
         style="fill:none;stroke:#000000"
         id="polygon264"
         points="461,-90 461,-90 450,-63 472,-63 " />
      <text
         style="font-size:14px;font-weight:bold;text-anchor:middle;font-family:'Helvetica,sans-Serif'"
         id="text266"
         font-size="14.00"
         font-weight="bold"
         y="-68.300003"
         x="461">3</text>
    </g>
    <g
       class="node"
       id="node28"
       transform="translate(4,202.198)">
      <title
         id="title269">tri4b</title>
      <polygon
         style="fill:none;stroke:#000000"
         id="polygon271"
         points="536.6,-95.76 536.6,-95.76 525.6,-68.76 547.6,-68.76 " />
      <text
         style="font-size:14px;font-weight:bold;text-anchor:middle;font-family:'Helvetica,sans-Serif'"
         id="text273"
         font-size="14.00"
         font-weight="bold"
         y="-74.059998"
         x="536.59998">4</text>
    </g>
    <g
       class="node"
       id="node29"
       transform="translate(4,202.198)">
      <title
         id="title276">tri5b</title>
      <polygon
         style="fill:none;stroke:#000000"
         id="polygon278"
         points="601.4,-95.76 601.4,-95.76 590.4,-68.76 612.4,-68.76 " />
      <text
         style="font-size:14px;font-weight:bold;text-anchor:middle;font-family:'Helvetica,sans-Serif'"
         id="text280"
         font-size="14.00"
         font-weight="bold"
         y="-74.059998"
         x="601.40002">5</text>
    </g>
  </g>
</svg>
