<?xml version="1.0" encoding="UTF-8" standalone="no"?>
<!-- Generated by graphviz version 2.36.0 (20140111.2315)
 -->

<!-- Title: G Pages: 1 -->

<svg
   xmlns:dc="http://purl.org/dc/elements/1.1/"
   xmlns:cc="http://creativecommons.org/ns#"
   xmlns:rdf="http://www.w3.org/1999/02/22-rdf-syntax-ns#"
   xmlns:svg="http://www.w3.org/2000/svg"
   xmlns="http://www.w3.org/2000/svg"
   xmlns:sodipodi="http://sodipodi.sourceforge.net/DTD/sodipodi-0.dtd"
   xmlns:inkscape="http://www.inkscape.org/namespaces/inkscape"
   width="621.5"
   height="246"
   viewBox="0 0 497.55444 196.8"
   id="svg2"
   version="1.1"
   inkscape:version="0.47 r22583"
   sodipodi:docname="Red-black_tree_delete_case_6_as_svg.svg">
  <metadata
     id="metadata286">
    <rdf:RDF>
      <cc:Work
         rdf:about="">
        <dc:format>image/svg+xml</dc:format>
        <dc:type
           rdf:resource="http://purl.org/dc/dcmitype/StillImage" />
      </cc:Work>
    </rdf:RDF>
  </metadata>
  <defs
     id="defs284">
    <inkscape:perspective
       sodipodi:type="inkscape:persp3d"
       inkscape:vp_x="0 : 128.75 : 1"
       inkscape:vp_y="0 : 1000 : 0"
       inkscape:vp_z="631.25 : 128.75 : 1"
       inkscape:persp3d-origin="315.625 : 85.833333 : 1"
       id="perspective288" />
    <inkscape:perspective
       id="perspective3335"
       inkscape:persp3d-origin="0.5 : 0.33333333 : 1"
       inkscape:vp_z="1 : 0.5 : 1"
       inkscape:vp_y="0 : 1000 : 0"
       inkscape:vp_x="0 : 0.5 : 1"
       sodipodi:type="inkscape:persp3d" />
    <inkscape:perspective
       id="perspective3349"
       inkscape:persp3d-origin="0.5 : 0.33333333 : 1"
       inkscape:vp_z="1 : 0.5 : 1"
       inkscape:vp_y="0 : 1000 : 0"
       inkscape:vp_x="0 : 0.5 : 1"
       sodipodi:type="inkscape:persp3d" />
    <inkscape:perspective
       id="perspective3093"
       inkscape:persp3d-origin="0.5 : 0.33333333 : 1"
       inkscape:vp_z="1 : 0.5 : 1"
       inkscape:vp_y="0 : 1000 : 0"
       inkscape:vp_x="0 : 0.5 : 1"
       sodipodi:type="inkscape:persp3d" />
  </defs>
  <sodipodi:namedview
     pagecolor="#ffffff"
     bordercolor="#666666"
     borderopacity="1"
     objecttolerance="10"
     gridtolerance="10"
     guidetolerance="10"
     inkscape:pageopacity="0"
     inkscape:pageshadow="2"
     inkscape:window-width="1589"
     inkscape:window-height="1014"
     id="namedview282"
     showgrid="false"
     inkscape:zoom="2"
     inkscape:cx="289.68082"
     inkscape:cy="127.03462"
     inkscape:window-x="0"
     inkscape:window-y="0"
     inkscape:window-maximized="0"
     inkscape:current-layer="layer2" />
  <g
     inkscape:groupmode="layer"
     id="layer1"
     inkscape:label="corners"
     transform="translate(-0.40028501,0.00441998)"
     style="display:none"
     sodipodi:insensitive="true">
    <rect
       style="opacity:0.7;fill:#000000;stroke:#ffffff;stroke-width:6.40456247;stroke-linecap:butt;stroke-miterlimit:4;stroke-dasharray:38.4273744, 38.4273744;stroke-dashoffset:0"
       id="rect2980"
       width="1.2008555"
       height="0.80057031"
       x="3.6025662"
       y="3.1288555" />
    <rect
       y="192.86401"
       x="493.55157"
       height="0.80057031"
       width="1.2008555"
       id="rect2982"
       style="opacity:0.7;fill:#000000;stroke:#ffffff;stroke-width:6.40456247;stroke-linecap:butt;stroke-miterlimit:4;stroke-dasharray:38.4273744, 38.4273744;stroke-dashoffset:0" />
  </g>
  <g
     inkscape:groupmode="layer"
     id="layer2"
     inkscape:label="all"
     style="display:inline">
    <g
       class="node"
       id="node1"
       transform="translate(3.599715,202.00442)">
      <title
         id="title10">P1</title>
      <ellipse
         style="fill:#ffffff;stroke:#000000"
         sodipodi:ry="18"
         sodipodi:rx="18"
         sodipodi:cy="-180"
         sodipodi:cx="83.720001"
         d="m 101.72,-180 c 0,9.94113 -8.058873,18 -17.999999,18 -9.941125,0 -18,-8.05887 -18,-18 0,-9.94113 8.058875,-18 18,-18 9.941126,0 17.999999,8.05887 17.999999,18 z"
         id="ellipse12"
         ry="18"
         rx="18"
         cy="-180"
         cx="83.720001" />
      <text
         style="font-size:14px;font-weight:bold;text-anchor:middle;font-family:'Helvetica,sans-Serif'"
         id="text14"
         font-size="14.00"
         font-weight="bold"
         y="-176.3"
         x="83.720001">P</text>
    </g>
    <ellipse
       cx="33.32"
       cy="-144"
       rx="18"
       ry="18"
       id="ellipse19"
       d="m 51.32,-144 c 0,9.94113 -8.058875,18 -18,18 -9.941126,0 -18,-8.05887 -18,-18 0,-9.94113 8.058874,-18 18,-18 9.941125,0 18,8.05887 18,18 z"
       sodipodi:cx="33.32"
       sodipodi:cy="-144"
       sodipodi:rx="18"
       sodipodi:ry="18"
       style="fill:#000000;stroke:#0000ff;stroke-width:1.6011406"
       transform="translate(3.599715,202.00442)" />
    <text
       x="36.919716"
       y="61.704414"
       font-weight="bold"
       font-size="14.00"
       id="text21"
       style="font-size:14px;font-weight:bold;text-anchor:middle;fill:#ffffff;font-family:'Helvetica,sans-Serif'">N</text>
    <g
       class="edge"
       id="edge1"
       transform="translate(3.599715,202.00442)">
      <title
         id="title24">P1-&gt;N1</title>
      <path
         style="fill:none;stroke:#000000"
         id="path26"
         d="m 68.8709,-169.394 c -3.8618,2.759 -8.1163,5.798 -12.2987,8.785" />
      <polygon
         style="fill:#000000;stroke:#000000"
         id="polygon28"
         points="58.4088,-157.619 48.2371,-154.655 54.3401,-163.316 58.4088,-157.619 " />
    </g>
    <g
       class="node"
       id="node3"
       transform="translate(3.599715,202.00442)">
      <title
         id="title31">S1</title>
      <ellipse
         style="fill:#000000;stroke:#000000"
         sodipodi:ry="18"
         sodipodi:rx="18"
         sodipodi:cy="-144"
         sodipodi:cx="137.72"
         d="m 155.72,-144 c 0,9.94113 -8.05887,18 -18,18 -9.94112,0 -18,-8.05887 -18,-18 0,-9.94113 8.05888,-18 18,-18 9.94113,0 18,8.05887 18,18 z"
         id="ellipse33"
         ry="18"
         rx="18"
         cy="-144"
         cx="137.72" />
      <text
         style="font-size:14px;font-weight:bold;text-anchor:middle;fill:#ffffff;font-family:'Helvetica,sans-Serif'"
         id="text35"
         font-size="14.00"
         font-weight="bold"
         y="-140.3"
         x="137.72">S</text>
    </g>
    <g
       class="edge"
       id="edge2"
       transform="translate(3.599715,202.00442)">
      <title
         id="title38">P1-&gt;S1</title>
      <path
         style="fill:none;stroke:#000000"
         id="path40"
         d="m 98.762,-169.972 c 4.718,3.145 10.047,6.698 15.214,10.143" />
      <polygon
         style="fill:#000000;stroke:#000000"
         id="polygon42"
         points="116.004,-162.684 122.383,-154.224 112.121,-156.859 116.004,-162.684 " />
    </g>
    <g
       class="edge"
       id="edge4"
       transform="translate(3.599715,202.00442)">
      <title
         id="title45">N1-&gt;dot1</title>
      <path
         style="fill:none;stroke:#000000"
         id="path47"
         d="m 25.6222,-127.505 c -3.1916,6.839 -6.8803,14.744 -10.046,21.528" />
      <polygon
         style="fill:#000000;stroke:#000000"
         id="polygon49"
         points="18.5791,-104.136 11.1785,-96.554 12.2358,-107.096 18.5791,-104.136 " />
    </g>
    <g
       class="edge"
       id="edge5"
       transform="translate(3.599715,202.00442)">
      <title
         id="title52">N1-&gt;dot2</title>
      <path
         style="fill:none;stroke:#000000"
         id="path54"
         d="m 39.0153,-126.914 c 2.1906,6.572 4.6846,14.054 6.8518,20.555" />
      <polygon
         style="fill:#000000;stroke:#000000"
         id="polygon56"
         points="49.2528,-107.269 49.0948,-96.6756 42.6121,-105.056 49.2528,-107.269 " />
    </g>
    <g
       class="edge"
       id="edge3"
       transform="translate(3.599715,202.00442)">
      <title
         id="title66">S1-&gt;SR1</title>
      <path
         style="fill:none;stroke:#000000"
         id="path68"
         d="m 147.748,-128.958 c 3.145,4.718 6.698,10.047 10.143,15.214" />
      <polygon
         style="fill:#000000;stroke:#000000"
         id="polygon70"
         points="160.861,-115.599 163.496,-105.337 155.036,-111.716 160.861,-115.599 " />
    </g>
    <g
       class="edge"
       id="edge6"
       transform="matrix(0.99705273,-0.07671902,0.07671902,0.99705273,16.73938,208.6272)">
      <title
         id="title73">S1-&gt;dot3</title>
      <path
         style="fill:none;stroke:#000000"
         id="path75"
         d="m 127.692,-128.958 c -5.091,7.636 -11.247,16.871 -16.289,24.433" />
      <polygon
         style="fill:#000000;stroke:#000000"
         id="polygon77"
         points="108.413,-106.35 114.238,-102.467 114.238,-102.467 105.779,-96.0879 " />
    </g>
    <g
       class="edge"
       id="edge7"
       transform="translate(3.599715,202.00442)">
      <title
         id="title85">SR1-&gt;dot4</title>
      <path
         style="fill:none;stroke:#000000"
         id="path87"
         d="m 168.025,-72.9141 c -2.191,6.5719 -4.685,14.0537 -6.852,20.5555" />
      <polygon
         style="fill:#000000;stroke:#000000"
         id="polygon89"
         points="164.428,-51.0556 157.945,-42.6756 157.787,-53.2693 164.428,-51.0556 " />
    </g>
    <g
       class="node"
       id="node9"
       transform="translate(3.599715,202.00442)">
      <title
         id="title92">dot5</title>
      <ellipse
         style="fill:#000000;stroke:#000000"
         sodipodi:ry="7"
         sodipodi:rx="7"
         sodipodi:cy="-36"
         sodipodi:cx="191.72"
         d="m 198.72,-36 c 0,3.865993 -3.13401,7 -7,7 -3.86599,0 -7,-3.134007 -7,-7 0,-3.865993 3.13401,-7 7,-7 3.86599,0 7,3.134007 7,7 z"
         id="ellipse94"
         ry="7"
         rx="7"
         cy="-36"
         cx="191.72" />
    </g>
    <g
       class="edge"
       id="edge8"
       transform="translate(3.599715,202.00442)">
      <title
         id="title97">SR1-&gt;dot5</title>
      <path
         style="fill:none;stroke:#000000"
         id="path99"
         d="m 179.415,-72.9141 c 2.191,6.5719 4.685,14.0537 6.852,20.5555" />
      <polygon
         style="fill:#000000;stroke:#000000"
         id="polygon101"
         points="189.653,-53.2693 189.495,-42.6756 183.012,-51.0556 189.653,-53.2693 " />
    </g>
    <g
       class="node"
       id="node10"
       transform="translate(3.599715,202.00442)">
      <title
         id="title104">tri1</title>
      <polygon
         style="fill:none;stroke:#000000"
         id="polygon106"
         points="11,-96.48 -1.77636e-15,-69.48 22,-69.48 11,-96.48 " />
      <text
         style="font-size:14px;font-weight:bold;text-anchor:middle;font-family:'Helvetica,sans-Serif'"
         id="text108"
         font-size="14.00"
         font-weight="bold"
         y="-74.779999"
         x="11">1</text>
    </g>
    <g
       class="node"
       id="node11"
       transform="translate(3.599715,202.00442)">
      <title
         id="title111">tri2</title>
      <polygon
         style="fill:none;stroke:#000000"
         id="polygon113"
         points="49.16,-96.48 38.16,-69.48 60.16,-69.48 49.16,-96.48 " />
      <text
         style="font-size:14px;font-weight:bold;text-anchor:middle;font-family:'Helvetica,sans-Serif'"
         id="text115"
         font-size="14.00"
         font-weight="bold"
         y="-74.779999"
         x="49.16">2</text>
    </g>
    <text
       x="111.40199"
       y="133.62898"
       font-weight="bold"
       font-size="14.00"
       id="text122"
       style="font-size:14px;font-weight:bold;text-anchor:middle;font-family:'Helvetica,sans-Serif'">3</text>
    <g
       id="g3256"
       transform="translate(-0.40028507,0.00441998)">
      <g
         transform="translate(4,202)"
         id="node8"
         class="node">
        <title
           id="title80">dot4</title>
        <ellipse
           cx="155.72"
           cy="-36"
           rx="7"
           ry="7"
           id="ellipse82"
           d="m 162.72,-36 c 0,3.865993 -3.13401,7 -7,7 -3.86599,0 -7,-3.134007 -7,-7 0,-3.865993 3.13401,-7 7,-7 3.86599,0 7,3.134007 7,7 z"
           sodipodi:cx="155.72"
           sodipodi:cy="-36"
           sodipodi:rx="7"
           sodipodi:ry="7"
           style="fill:#000000;stroke:#000000" />
      </g>
      <polygon
         transform="translate(4,202)"
         style="fill:none;stroke:#000000"
         id="polygon127"
         points="166.72,-9 155.72,-36 155.72,-36 144.72,-9 " />
    </g>
    <text
       x="159.31972"
       y="187.70439"
       font-weight="bold"
       font-size="14.00"
       id="text129"
       style="font-size:14px;font-weight:bold;text-anchor:middle;font-family:'Helvetica,sans-Serif'">4</text>
    <g
       class="node"
       id="node14"
       transform="translate(3.599715,202.00442)">
      <title
         id="title132">tri5</title>
      <polygon
         style="fill:none;stroke:#000000"
         id="polygon134"
         points="191.72,-36 180.72,-9 202.72,-9 191.72,-36 " />
      <text
         style="font-size:14px;font-weight:bold;text-anchor:middle;font-family:'Helvetica,sans-Serif'"
         id="text136"
         font-size="14.00"
         font-weight="bold"
         y="-14.3"
         x="191.72">5</text>
    </g>
    <g
       class="node"
       id="node15"
       transform="translate(3.599715,202.00442)">
      <title
         id="title139">subscript2</title>
      <text
         style="font-size:10px;font-weight:bold;text-anchor:middle;fill:#ffffff;font-family:'Helvetica,sans-Serif'"
         id="text141"
         font-size="10.00"
         font-weight="bold"
         y="-83.18"
         x="182.36">R</text>
    </g>
    <g
       class="node"
       id="node16"
       transform="translate(3.599715,202.00442)">
      <title
         id="title144">arrow</title>
      <polygon
         style="fill:#0000ff;stroke:#000000"
         id="polygon146"
         points="263.72,-120 209.72,-120 209.72,-96 263.72,-96 263.72,-90 281.72,-108 263.72,-126 263.72,-120 " />
    </g>
    <g
       class="node"
       id="node17"
       transform="translate(3.599715,202.00442)">
      <title
         id="title149">S2</title>
      <ellipse
         style="fill:#ffffff;stroke:#000000"
         sodipodi:ry="18"
         sodipodi:rx="18"
         sodipodi:cy="-180"
         sodipodi:cx="407.72"
         d="m 425.72,-180 c 0,9.94113 -8.05887,18 -18,18 -9.94112,0 -18,-8.05887 -18,-18 0,-9.94113 8.05888,-18 18,-18 9.94113,0 18,8.05887 18,18 z"
         id="ellipse151"
         ry="18"
         rx="18"
         cy="-180"
         cx="407.72" />
      <text
         style="font-size:14px;font-weight:bold;text-anchor:middle;font-family:'Helvetica,sans-Serif'"
         id="text153"
         font-size="14.00"
         font-weight="bold"
         y="-176.3"
         x="407.72">S</text>
    </g>
    <g
       class="node"
       id="node19"
       transform="translate(3.599715,202.00442)">
      <title
         id="title156">P2</title>
      <ellipse
         style="fill:#000000;stroke:#000000"
         sodipodi:ry="18"
         sodipodi:rx="18"
         sodipodi:cy="-144"
         sodipodi:cx="353.72"
         d="m 371.72,-144 c 0,9.94113 -8.05887,18 -18,18 -9.94112,0 -18,-8.05887 -18,-18 0,-9.94113 8.05888,-18 18,-18 9.94113,0 18,8.05887 18,18 z"
         id="ellipse158"
         ry="18"
         rx="18"
         cy="-144"
         cx="353.72" />
      <text
         style="font-size:14px;font-weight:bold;text-anchor:middle;fill:#ffffff;font-family:'Helvetica,sans-Serif'"
         id="text160"
         font-size="14.00"
         font-weight="bold"
         y="-140.3"
         x="353.72">P</text>
    </g>
    <g
       class="edge"
       id="edge9"
       transform="translate(3.599715,202.00442)">
      <title
         id="title163">S2-&gt;P2</title>
      <path
         style="fill:none;stroke:#000000"
         id="path165"
         d="m 392.678,-169.972 c -4.718,3.145 -10.047,6.698 -15.214,10.143" />
      <polygon
         style="fill:#000000;stroke:#000000"
         id="polygon167"
         points="379.319,-156.859 369.057,-154.224 375.436,-162.684 379.319,-156.859 " />
    </g>
    <ellipse
       cx="461.72"
       cy="-144"
       rx="18"
       ry="18"
       id="ellipse172"
       d="m 479.72,-144 c 0,9.94113 -8.05887,18 -18,18 -9.94112,0 -18,-8.05887 -18,-18 0,-9.94113 8.05888,-18 18,-18 9.94113,0 18,8.05887 18,18 z"
       sodipodi:cx="461.72"
       sodipodi:cy="-144"
       sodipodi:rx="18"
       sodipodi:ry="18"
       style="fill:#000000;stroke:#000000"
       transform="translate(3.599715,202.00442)" />
    <g
       class="edge"
       id="edge10"
       transform="translate(3.599715,202.00442)">
      <title
         id="title177">S2-&gt;SR2</title>
      <path
         style="fill:none;stroke:#000000"
         id="path179"
         d="m 422.762,-169.972 c 4.718,3.145 10.047,6.698 15.214,10.143" />
      <polygon
         style="fill:#000000;stroke:#000000"
         id="polygon181"
         points="440.004,-162.684 446.383,-154.224 436.121,-156.859 440.004,-162.684 " />
    </g>
    <g
       class="node"
       id="node18"
       transform="translate(3.599715,202.00442)">
      <title
         id="title184">N2</title>
      <ellipse
         style="fill:#000000;stroke:#000000"
         sodipodi:ry="18"
         sodipodi:rx="18"
         sodipodi:cy="-90"
         sodipodi:cx="317.72"
         d="m 335.72,-90 c 0,9.941125 -8.05887,18 -18,18 -9.94112,0 -18,-8.058875 -18,-18 0,-9.941125 8.05888,-18 18,-18 9.94113,0 18,8.058875 18,18 z"
         id="ellipse186"
         ry="18"
         rx="18"
         cy="-90"
         cx="317.72" />
      <text
         style="font-size:14px;font-weight:bold;text-anchor:middle;fill:#ffffff;font-family:'Helvetica,sans-Serif'"
         id="text188"
         font-size="14.00"
         font-weight="bold"
         y="-86.300003"
         x="317.72">N</text>
    </g>
    <g
       class="edge"
       id="edge13"
       transform="translate(3.599715,202.00442)">
      <title
         id="title191">N2-&gt;dot1b</title>
      <path
         style="fill:none;stroke:#000000"
         id="path193"
         d="m 311.004,-73.2101 c -2.698,6.7456 -5.795,14.4882 -8.463,21.1579" />
      <polygon
         style="fill:#000000;stroke:#000000"
         id="polygon195"
         points="305.784,-50.737 298.821,-42.7521 299.285,-53.3367 305.784,-50.737 " />
    </g>
    <g
       class="edge"
       id="edge14"
       transform="translate(3.599715,202.00442)">
      <title
         id="title198">N2-&gt;dot2b</title>
      <path
         style="fill:none;stroke:#000000"
         id="path200"
         d="m 324.436,-73.2101 c 2.698,6.7456 5.795,14.4882 8.463,21.1579" />
      <polygon
         style="fill:#000000;stroke:#000000"
         id="polygon202"
         points="336.155,-53.3367 336.619,-42.7521 329.656,-50.737 336.155,-53.3367 " />
    </g>
    <g
       class="edge"
       id="edge11"
       transform="translate(3.599715,202.00442)">
      <title
         id="title205">P2-&gt;N2</title>
      <path
         style="fill:none;stroke:#000000"
         id="path207"
         d="m 343.692,-128.958 c -3.145,4.718 -6.698,10.047 -10.143,15.214" />
      <polygon
         style="fill:#000000;stroke:#000000"
         id="polygon209"
         points="336.404,-111.716 327.944,-105.337 330.579,-115.599 336.404,-111.716 " />
    </g>
    <g
       class="edge"
       id="edge12"
       transform="matrix(0.99649287,0.08367784,-0.08367784,0.99649287,-8.4046016,168.45404)">
      <title
         id="title212">P2-&gt;dot3b</title>
      <path
         style="fill:none;stroke:#000000"
         id="path214"
         d="m 363.748,-128.958 c 5.091,7.636 11.247,16.871 16.289,24.433" />
      <polygon
         style="fill:#000000;stroke:#000000"
         id="polygon216"
         points="377.202,-102.467 383.027,-106.35 383.027,-106.35 385.661,-96.0879 " />
    </g>
    <g
       class="node"
       id="node24"
       transform="translate(3.599715,202.00442)">
      <title
         id="title219">dot4b</title>
      <ellipse
         style="fill:#000000;stroke:#000000"
         sodipodi:ry="7"
         sodipodi:rx="7"
         sodipodi:cy="-90"
         sodipodi:cx="443.72"
         d="m 450.72,-90 c 0,3.865993 -3.13401,7 -7,7 -3.86599,0 -7,-3.134007 -7,-7 0,-3.865993 3.13401,-7 7,-7 3.86599,0 7,3.134007 7,7 z"
         id="ellipse221"
         ry="7"
         rx="7"
         cy="-90"
         cx="443.72" />
    </g>
    <g
       class="edge"
       id="edge15"
       transform="translate(3.599715,202.00442)">
      <title
         id="title224">SR2-&gt;dot4b</title>
      <path
         style="fill:none;stroke:#000000"
         id="path226"
         d="m 456.025,-126.914 c -2.191,6.572 -4.685,14.054 -6.852,20.555" />
      <polygon
         style="fill:#000000;stroke:#000000"
         id="polygon228"
         points="452.428,-105.056 445.945,-96.6756 445.787,-107.269 452.428,-105.056 " />
    </g>
    <g
       class="node"
       id="node25"
       transform="translate(3.599715,202.00442)">
      <title
         id="title231">dot5b</title>
      <ellipse
         style="fill:#000000;stroke:#000000"
         sodipodi:ry="7"
         sodipodi:rx="7"
         sodipodi:cy="-90"
         sodipodi:cx="479.72"
         d="m 486.72,-90 c 0,3.865993 -3.13401,7 -7,7 -3.86599,0 -7,-3.134007 -7,-7 0,-3.865993 3.13401,-7 7,-7 3.86599,0 7,3.134007 7,7 z"
         id="ellipse233"
         ry="7"
         rx="7"
         cy="-90"
         cx="479.72" />
    </g>
    <g
       class="edge"
       id="edge16"
       transform="translate(3.599715,202.00442)">
      <title
         id="title236">SR2-&gt;dot5b</title>
      <path
         style="fill:none;stroke:#000000"
         id="path238"
         d="m 467.415,-126.914 c 2.191,6.572 4.685,14.054 6.852,20.555" />
      <polygon
         style="fill:#000000;stroke:#000000"
         id="polygon240"
         points="477.653,-107.269 477.495,-96.6756 471.012,-105.056 477.653,-107.269 " />
    </g>
    <g
       class="node"
       id="node26"
       transform="translate(3.599715,202.00442)">
      <title
         id="title243">tri1b</title>
      <polygon
         style="fill:none;stroke:#000000"
         id="polygon245"
         points="299,-42.48 288,-15.48 310,-15.48 299,-42.48 " />
      <text
         style="font-size:14px;font-weight:bold;text-anchor:middle;font-family:'Helvetica,sans-Serif'"
         id="text247"
         font-size="14.00"
         font-weight="bold"
         y="-20.780001"
         x="299">1</text>
    </g>
    <g
       class="node"
       id="node27"
       transform="translate(3.599715,202.00442)">
      <title
         id="title250">tri2b</title>
      <polygon
         style="fill:none;stroke:#000000"
         id="polygon252"
         points="336.44,-42.48 325.44,-15.48 347.44,-15.48 336.44,-42.48 " />
      <text
         style="font-size:14px;font-weight:bold;text-anchor:middle;font-family:'Helvetica,sans-Serif'"
         id="text254"
         font-size="14.00"
         font-weight="bold"
         y="-20.780001"
         x="336.44">2</text>
    </g>
    <text
       x="387.23743"
       y="133.62898"
       font-weight="bold"
       font-size="14.00"
       id="text261"
       style="font-size:14px;font-weight:bold;text-anchor:middle;font-family:'Helvetica,sans-Serif'">3</text>
    <g
       class="node"
       id="node29"
       transform="translate(3.599715,202.00442)">
      <title
         id="title264">tri4b</title>
      <polygon
         style="fill:none;stroke:#000000"
         id="polygon266"
         points="443.72,-90 432.72,-63 454.72,-63 443.72,-90 " />
      <text
         style="font-size:14px;font-weight:bold;text-anchor:middle;font-family:'Helvetica,sans-Serif'"
         id="text268"
         font-size="14.00"
         font-weight="bold"
         y="-68.300003"
         x="443.72">4</text>
    </g>
    <g
       class="node"
       id="node30"
       transform="translate(3.599715,202.00442)">
      <title
         id="title271">tri5b</title>
      <polygon
         style="fill:none;stroke:#000000"
         id="polygon273"
         points="479.72,-90 468.72,-63 490.72,-63 479.72,-90 " />
      <text
         style="font-size:14px;font-weight:bold;text-anchor:middle;font-family:'Helvetica,sans-Serif'"
         id="text275"
         font-size="14.00"
         font-weight="bold"
         y="-68.300003"
         x="479.72">5</text>
    </g>
    <g
       transform="translate(-48.23436,-54.234218)"
       id="g3272">
      <g
         transform="translate(4,202)"
         id="g3274"
         class="node">
        <title
           id="title3276">dot4</title>
        <ellipse
           cx="155.72"
           cy="-36"
           rx="7"
           ry="7"
           id="ellipse3278"
           d="m 162.72,-36 c 0,3.865993 -3.13401,7 -7,7 -3.86599,0 -7,-3.134007 -7,-7 0,-3.865993 3.13401,-7 7,-7 3.86599,0 7,3.134007 7,7 z"
           sodipodi:cx="155.72"
           sodipodi:cy="-36"
           sodipodi:rx="7"
           sodipodi:ry="7"
           style="fill:#000000;stroke:#000000" />
      </g>
      <polygon
         transform="translate(4,202)"
         style="fill:none;stroke:#000000"
         id="polygon3280"
         points="144.72,-9 166.72,-9 155.72,-36 155.72,-36 " />
    </g>
    <g
       transform="translate(231.36198,147.96592)"
       id="g3284"
       class="node">
      <title
         id="title3286">dot4</title>
      <ellipse
         cx="155.72"
         cy="-36"
         rx="7"
         ry="7"
         id="ellipse3288"
         d="m 162.72,-36 c 0,3.865993 -3.13401,7 -7,7 -3.86599,0 -7,-3.134007 -7,-7 0,-3.865993 3.13401,-7 7,-7 3.86599,0 7,3.134007 7,7 z"
         sodipodi:cx="155.72"
         sodipodi:cy="-36"
         sodipodi:rx="7"
         sodipodi:ry="7"
         style="fill:#000000;stroke:#000000" />
    </g>
    <polygon
       transform="translate(231.36198,147.96592)"
       style="fill:none;stroke:#000000"
       id="polygon3290"
       points="144.72,-9 166.72,-9 155.72,-36 155.72,-36 " />
    <ellipse
       cx="173.72"
       cy="-90"
       rx="18"
       ry="18"
       id="ellipse61"
       d="m 191.72,-90 c 0,9.941125 -8.05887,18 -18,18 -9.94112,0 -18,-8.058875 -18,-18 0,-9.941125 8.05888,-18 18,-18 9.94113,0 18,8.058875 18,18 z"
       sodipodi:cx="173.72"
       sodipodi:cy="-90"
       sodipodi:rx="18"
       sodipodi:ry="18"
       style="fill:#ff0000;stroke:#000000"
       transform="translate(3.599715,202.00442)" />
    <text
       x="177.31972"
       y="115.7044"
       font-weight="bold"
       font-size="14.00"
       id="text63"
       style="font-size:14px;font-weight:bold;text-anchor:middle;fill:#ffffff;font-family:'Helvetica,sans-Serif'">S</text>
    <text
       x="185.95972"
       y="118.82442"
       font-weight="bold"
       font-size="10.00"
       id="text141-1"
       style="font-size:9.99999809px;font-weight:bold;text-anchor:middle;fill:#ffffff;font-family:'Helvetica,sans-Serif'">R</text>
    <text
       x="465.3197"
       y="61.704414"
       font-weight="bold"
       font-size="14.00"
       id="text174"
       style="font-size:14px;font-weight:bold;text-anchor:middle;fill:#ffffff;font-family:'Helvetica,sans-Serif'">S</text>
    <text
       x="473.95963"
       y="64.824425"
       font-weight="bold"
       font-size="10.00"
       id="text280"
       style="font-size:9.99999809px;font-weight:bold;text-anchor:middle;fill:#ffffff;font-family:'Helvetica,sans-Serif'">R</text>
  </g>
</svg>
