<?xml version="1.0" encoding="UTF-8" standalone="no"?>
<!-- Generated by graphviz version 2.36.0 (20140111.2315)
 -->

<!-- Title: G Pages: 1 -->

<svg
   xmlns:dc="http://purl.org/dc/elements/1.1/"
   xmlns:cc="http://creativecommons.org/ns#"
   xmlns:rdf="http://www.w3.org/1999/02/22-rdf-syntax-ns#"
   xmlns:svg="http://www.w3.org/2000/svg"
   xmlns="http://www.w3.org/2000/svg"
   xmlns:sodipodi="http://sodipodi.sourceforge.net/DTD/sodipodi-0.dtd"
   xmlns:inkscape="http://www.inkscape.org/namespaces/inkscape"
   width="622.5"
   height="239.00002"
   viewBox="0 0 498.35501 190.74113"
   id="svg2"
   version="1.1"
   inkscape:version="0.47 r22583"
   sodipodi:docname="Red-black_tree_delete_case_3_as_svg.svg">
  <metadata
     id="metadata332">
    <rdf:RDF>
      <cc:Work
         rdf:about="">
        <dc:format>image/svg+xml</dc:format>
        <dc:type
           rdf:resource="http://purl.org/dc/dcmitype/StillImage" />
      </cc:Work>
    </rdf:RDF>
  </metadata>
  <defs
     id="defs330">
    <inkscape:perspective
       sodipodi:type="inkscape:persp3d"
       inkscape:vp_x="0 : 125 : 1"
       inkscape:vp_y="0 : 1000 : 0"
       inkscape:vp_z="631.25 : 125 : 1"
       inkscape:persp3d-origin="315.625 : 83.333333 : 1"
       id="perspective334" />
    <inkscape:perspective
       id="perspective3001"
       inkscape:persp3d-origin="0.5 : 0.33333333 : 1"
       inkscape:vp_z="1 : 0.5 : 1"
       inkscape:vp_y="0 : 1000 : 0"
       inkscape:vp_x="0 : 0.5 : 1"
       sodipodi:type="inkscape:persp3d" />
    <inkscape:perspective
       id="perspective3014"
       inkscape:persp3d-origin="0.5 : 0.33333333 : 1"
       inkscape:vp_z="1 : 0.5 : 1"
       inkscape:vp_y="0 : 1000 : 0"
       inkscape:vp_x="0 : 0.5 : 1"
       sodipodi:type="inkscape:persp3d" />
    <inkscape:perspective
       id="perspective3569"
       inkscape:persp3d-origin="0.5 : 0.33333333 : 1"
       inkscape:vp_z="1 : 0.5 : 1"
       inkscape:vp_y="0 : 1000 : 0"
       inkscape:vp_x="0 : 0.5 : 1"
       sodipodi:type="inkscape:persp3d" />
  </defs>
  <sodipodi:namedview
     pagecolor="#ffffff"
     bordercolor="#666666"
     borderopacity="1"
     objecttolerance="10"
     gridtolerance="10"
     guidetolerance="10"
     inkscape:pageopacity="0"
     inkscape:pageshadow="2"
     inkscape:window-width="1029"
     inkscape:window-height="769"
     id="namedview328"
     showgrid="false"
     inkscape:zoom="1"
     inkscape:cx="320"
     inkscape:cy="113.4829"
     inkscape:window-x="0"
     inkscape:window-y="0"
     inkscape:window-maximized="0"
     inkscape:current-layer="layer2"
     borderlayer="true" />
  <g
     inkscape:groupmode="layer"
     id="layer1"
     inkscape:label="corners"
     transform="translate(-0.20014119,0.41398222)"
     style="display:none">
    <rect
       style="opacity:0.7;fill:#000000;stroke:#ffffff;stroke-width:6.40456247;stroke-linecap:butt;stroke-miterlimit:4;stroke-dasharray:38.42737299, 38.42737299;stroke-dashoffset:0;display:inline"
       id="rect2980"
       width="1.2008555"
       height="0.80057031"
       x="3.4024224"
       y="2.4907074" />
    <rect
       style="opacity:0.7;fill:#000000;stroke:#ffffff;stroke-width:6.40456247;stroke-linecap:butt;stroke-miterlimit:4;stroke-dasharray:38.42737158, 38.42737158;stroke-dashoffset:0;display:inline"
       id="rect2980-1"
       width="1.2008555"
       height="0.80057031"
       x="494.15201"
       y="186.62189" />
  </g>
  <g
     inkscape:groupmode="layer"
     id="layer2"
     inkscape:label="all"
     transform="translate(-0.20014119,0.41398222)"
     style="display:inline">
    <g
       class="node"
       id="node1"
       transform="translate(4,195.52)">
      <title
         id="title10">P1</title>
      <ellipse
         style="fill:#000000;stroke:#000000"
         sodipodi:ry="18"
         sodipodi:rx="18"
         sodipodi:cy="-173.52"
         sodipodi:cx="83.720001"
         d="m 101.72,-173.52 c 0,9.94112 -8.058873,18 -17.999999,18 -9.941125,0 -18,-8.05888 -18,-18 0,-9.94113 8.058875,-18 18,-18 9.941126,0 17.999999,8.05887 17.999999,18 z"
         id="ellipse12"
         ry="18"
         rx="18"
         cy="-173.52"
         cx="83.720001" />
      <text
         style="font-size:14px;font-weight:bold;text-anchor:middle;fill:#ffffff;font-family:'Helvetica,sans-Serif'"
         id="text14"
         font-size="14.00"
         font-weight="bold"
         y="-169.82001"
         x="83.720001">P</text>
    </g>
    <ellipse
       cx="33.32"
       cy="-137.52"
       rx="18"
       ry="18"
       id="ellipse19"
       d="m 51.32,-137.52 c 0,9.94112 -8.058875,18 -18,18 -9.941126,0 -18,-8.05888 -18,-18 0,-9.94113 8.058874,-18 18,-18 9.941125,0 18,8.05887 18,18 z"
       sodipodi:cx="33.32"
       sodipodi:cy="-137.52"
       sodipodi:rx="18"
       sodipodi:ry="18"
       style="fill:#000000;stroke:#0000ff;stroke-width:1.60114059"
       transform="translate(4,195.52)" />
    <text
       x="37.319996"
       y="61.699982"
       font-weight="bold"
       font-size="14.00"
       id="text21"
       style="font-size:14px;font-weight:bold;text-anchor:middle;fill:#ffffff;font-family:'Helvetica,sans-Serif'">N</text>
    <g
       class="edge"
       id="edge1"
       transform="translate(4,195.52)">
      <title
         id="title24">P1-&gt;N1</title>
      <path
         style="fill:none;stroke:#000000"
         id="path26"
         d="m 68.8709,-162.914 c -3.8618,2.759 -8.1163,5.798 -12.2987,8.785" />
      <polygon
         style="fill:#000000;stroke:#000000"
         id="polygon28"
         points="54.3401,-156.836 58.4088,-151.139 58.4088,-151.139 48.2371,-148.175 " />
    </g>
    <g
       class="node"
       id="node3"
       transform="translate(4,195.52)">
      <title
         id="title31">S1</title>
      <ellipse
         style="fill:#000000;stroke:#000000"
         sodipodi:ry="18"
         sodipodi:rx="18"
         sodipodi:cy="-137.52"
         sodipodi:cx="137.72"
         d="m 155.72,-137.52 c 0,9.94112 -8.05887,18 -18,18 -9.94112,0 -18,-8.05888 -18,-18 0,-9.94113 8.05888,-18 18,-18 9.94113,0 18,8.05887 18,18 z"
         id="ellipse33"
         ry="18"
         rx="18"
         cy="-137.52"
         cx="137.72" />
      <text
         style="font-size:14px;font-weight:bold;text-anchor:middle;fill:#ffffff;font-family:'Helvetica,sans-Serif'"
         id="text35"
         font-size="14.00"
         font-weight="bold"
         y="-133.82001"
         x="137.72">S</text>
    </g>
    <g
       class="edge"
       id="edge2"
       transform="translate(4,195.52)">
      <title
         id="title38">P1-&gt;S1</title>
      <path
         style="fill:none;stroke:#000000"
         id="path40"
         d="m 98.762,-163.492 c 4.718,3.145 10.047,6.698 15.214,10.143" />
      <polygon
         style="fill:#000000;stroke:#000000"
         id="polygon42"
         points="112.121,-150.379 116.004,-156.204 116.004,-156.204 122.383,-147.744 " />
    </g>
    <g
       class="edge"
       id="edge5"
       transform="translate(4,195.52)">
      <title
         id="title45">N1-&gt;dot1</title>
      <path
         style="fill:none;stroke:#000000"
         id="path47"
         d="m 25.6223,-121.025 c -3.1916,6.839 -6.8804,14.744 -10.0461,21.5275" />
      <polygon
         style="fill:#000000;stroke:#000000"
         id="polygon49"
         points="12.2358,-100.616 18.5791,-97.6557 18.5791,-97.6557 11.1785,-90.074 " />
    </g>
    <g
       class="edge"
       id="edge6"
       transform="translate(4,195.52)">
      <title
         id="title52">N1-&gt;dot2</title>
      <path
         style="fill:none;stroke:#000000"
         id="path54"
         d="m 39.0153,-120.434 c 2.1906,6.572 4.6846,14.054 6.8518,20.5554" />
      <polygon
         style="fill:#000000;stroke:#000000"
         id="polygon56"
         points="42.6121,-98.5756 49.2529,-100.789 49.2529,-100.789 49.0948,-90.1956 " />
    </g>
    <g
       class="node"
       id="node4"
       transform="translate(4,195.52)">
      <title
         id="title59">SL1</title>
      <ellipse
         style="fill:#000000;stroke:#000000"
         sodipodi:ry="18"
         sodipodi:rx="18"
         sodipodi:cy="-83.519997"
         sodipodi:cx="101.72"
         d="m 119.72,-83.519997 c 0,9.941126 -8.05887,18 -18,18 -9.941124,0 -17.999999,-8.058874 -17.999999,-18 0,-9.941125 8.058875,-18.000003 17.999999,-18.000003 9.94113,0 18,8.058878 18,18.000003 z"
         id="ellipse61"
         ry="18"
         rx="18"
         cy="-83.519997"
         cx="101.72" />
      <text
         style="font-size:14px;font-weight:bold;text-anchor:middle;fill:#ffffff;font-family:'Helvetica,sans-Serif'"
         id="text63"
         font-size="14.00"
         font-weight="bold"
         y="-79.82"
         x="101.72">S</text>
    </g>
    <g
       class="edge"
       id="edge3"
       transform="translate(4,195.52)">
      <title
         id="title66">S1-&gt;SL1</title>
      <path
         style="fill:none;stroke:#000000"
         id="path68"
         d="m 127.692,-122.478 c -3.145,4.718 -6.698,10.047 -10.143,15.214" />
      <polygon
         style="fill:#000000;stroke:#000000"
         id="polygon70"
         points="114.579,-109.119 120.404,-105.236 120.404,-105.236 111.944,-98.8566 " />
    </g>
    <g
       class="node"
       id="node5"
       transform="translate(4,195.52)">
      <title
         id="title73">SR1</title>
      <ellipse
         style="fill:#000000;stroke:#000000"
         sodipodi:ry="18"
         sodipodi:rx="18"
         sodipodi:cy="-83.519997"
         sodipodi:cx="173.72"
         d="m 191.72,-83.519997 c 0,9.941126 -8.05887,18 -18,18 -9.94112,0 -18,-8.058874 -18,-18 0,-9.941125 8.05888,-18.000003 18,-18.000003 9.94113,0 18,8.058878 18,18.000003 z"
         id="ellipse75"
         ry="18"
         rx="18"
         cy="-83.519997"
         cx="173.72" />
      <text
         style="font-size:14px;font-weight:bold;text-anchor:middle;fill:#ffffff;font-family:'Helvetica,sans-Serif'"
         id="text77"
         font-size="14.00"
         font-weight="bold"
         y="-79.82"
         x="173.72">S</text>
    </g>
    <g
       class="edge"
       id="edge4"
       transform="translate(4,195.52)">
      <title
         id="title80">S1-&gt;SR1</title>
      <path
         style="fill:none;stroke:#000000"
         id="path82"
         d="m 147.748,-122.478 c 3.145,4.718 6.698,10.047 10.143,15.214" />
      <polygon
         style="fill:#000000;stroke:#000000"
         id="polygon84"
         points="155.036,-105.236 160.861,-109.119 160.861,-109.119 163.496,-98.8566 " />
    </g>
    <g
       class="edge"
       id="edge7"
       transform="translate(4,195.52)">
      <title
         id="title87">SL1-&gt;dot3</title>
      <path
         style="fill:none;stroke:#000000"
         id="path89"
         d="m 95.004,-66.7301 c -2.6982,6.7456 -5.7952,14.4882 -8.4631,21.1579" />
      <polygon
         style="fill:#000000;stroke:#000000"
         id="polygon91"
         points="83.2851,-46.8567 89.7845,-44.257 89.7845,-44.257 82.8208,-36.2721 " />
    </g>
    <g
       class="edge"
       id="edge8"
       transform="translate(4,195.52)">
      <title
         id="title94">SL1-&gt;dot4</title>
      <path
         style="fill:none;stroke:#000000"
         id="path96"
         d="m 108.436,-66.7301 c 2.698,6.7456 5.795,14.4882 8.463,21.1579" />
      <polygon
         style="fill:#000000;stroke:#000000"
         id="polygon98"
         points="113.656,-44.257 120.155,-46.8567 120.155,-46.8567 120.619,-36.2721 " />
    </g>
    <g
       class="edge"
       id="edge9"
       transform="translate(4,195.52)">
      <title
         id="title101">SR1-&gt;dot5</title>
      <path
         style="fill:none;stroke:#000000"
         id="path103"
         d="m 167.004,-66.7301 c -2.698,6.7456 -5.795,14.4882 -8.463,21.1579" />
      <polygon
         style="fill:#000000;stroke:#000000"
         id="polygon105"
         points="155.285,-46.8567 161.784,-44.257 161.784,-44.257 154.821,-36.2721 " />
    </g>
    <g
       class="edge"
       id="edge10"
       transform="translate(4,195.52)">
      <title
         id="title108">SR1-&gt;dot6</title>
      <path
         style="fill:none;stroke:#000000"
         id="path110"
         d="m 180.436,-66.7301 c 2.698,6.7456 5.795,14.4882 8.463,21.1579" />
      <polygon
         style="fill:#000000;stroke:#000000"
         id="polygon112"
         points="185.656,-44.257 192.155,-46.8567 192.155,-46.8567 192.619,-36.2721 " />
    </g>
    <g
       class="node"
       id="node12"
       transform="translate(4,195.52)">
      <title
         id="title115">tri1</title>
      <polygon
         style="fill:none;stroke:#000000"
         id="polygon117"
         points="22,-63 11,-90 11,-90 -1.77636e-15,-63 " />
      <text
         style="font-size:14px;font-weight:bold;text-anchor:middle;font-family:'Helvetica,sans-Serif'"
         id="text119"
         font-size="14.00"
         font-weight="bold"
         y="-68.300003"
         x="11">1</text>
    </g>
    <g
       class="node"
       id="node13"
       transform="translate(4,195.52)">
      <title
         id="title122">tri2</title>
      <polygon
         style="fill:none;stroke:#000000"
         id="polygon124"
         points="60.16,-63 49.16,-90 49.16,-90 38.16,-63 " />
      <text
         style="font-size:14px;font-weight:bold;text-anchor:middle;font-family:'Helvetica,sans-Serif'"
         id="text126"
         font-size="14.00"
         font-weight="bold"
         y="-68.300003"
         x="49.16">2</text>
    </g>
    <g
       class="node"
       id="node14"
       transform="translate(4,195.52)">
      <title
         id="title129">tri3</title>
      <polygon
         style="fill:none;stroke:#000000"
         id="polygon131"
         points="94,-9 83,-36 83,-36 72,-9 " />
      <text
         style="font-size:14px;font-weight:bold;text-anchor:middle;font-family:'Helvetica,sans-Serif'"
         id="text133"
         font-size="14.00"
         font-weight="bold"
         y="-14.3"
         x="83">3</text>
    </g>
    <g
       class="node"
       id="node15"
       transform="translate(4,195.52)">
      <title
         id="title136">tri4</title>
      <polygon
         style="fill:none;stroke:#000000"
         id="polygon138"
         points="131.44,-9 120.44,-36 120.44,-36 109.44,-9 " />
      <text
         style="font-size:14px;font-weight:bold;text-anchor:middle;font-family:'Helvetica,sans-Serif'"
         id="text140"
         font-size="14.00"
         font-weight="bold"
         y="-14.3"
         x="120.44">4</text>
    </g>
    <g
       class="node"
       id="node16"
       transform="translate(4,195.52)">
      <title
         id="title143">tri5</title>
      <polygon
         style="fill:none;stroke:#000000"
         id="polygon145"
         points="166,-9 155,-36 155,-36 144,-9 " />
      <text
         style="font-size:14px;font-weight:bold;text-anchor:middle;font-family:'Helvetica,sans-Serif'"
         id="text147"
         font-size="14.00"
         font-weight="bold"
         y="-14.3"
         x="155">5</text>
    </g>
    <g
       class="node"
       id="node17"
       transform="translate(4,195.52)">
      <title
         id="title150">tri6</title>
      <polygon
         style="fill:none;stroke:#000000"
         id="polygon152"
         points="203.44,-9 192.44,-36 192.44,-36 181.44,-9 " />
      <text
         style="font-size:14px;font-weight:bold;text-anchor:middle;font-family:'Helvetica,sans-Serif'"
         id="text154"
         font-size="14.00"
         font-weight="bold"
         y="-14.3"
         x="192.44">6</text>
    </g>
    <g
       class="node"
       id="node18"
       transform="translate(4,195.52)">
      <title
         id="title157">subscript1</title>
      <text
         style="font-size:10px;font-weight:bold;text-anchor:middle;fill:#ffffff;font-family:'Helvetica,sans-Serif'"
         id="text159"
         font-size="10.00"
         font-weight="bold"
         y="-76.699997"
         x="110.36">L</text>
    </g>
    <g
       class="node"
       id="node19"
       transform="translate(4,195.52)">
      <title
         id="title162">subscript2</title>
      <text
         style="font-size:10px;font-weight:bold;text-anchor:middle;fill:#ffffff;font-family:'Helvetica,sans-Serif'"
         id="text164"
         font-size="10.00"
         font-weight="bold"
         y="-76.699997"
         x="182.36">R</text>
    </g>
    <g
       class="node"
       id="node20"
       transform="translate(4,195.52)">
      <title
         id="title167">arrow</title>
      <polygon
         style="fill:#0000ff;stroke:#000000"
         id="polygon169"
         points="263.72,-119.52 263.72,-113.52 263.72,-113.52 209.72,-113.52 209.72,-89.52 263.72,-89.52 263.72,-83.52 281.72,-101.52 " />
    </g>
    <ellipse
       cx="371.72"
       cy="-173.52"
       rx="18"
       ry="18"
       id="ellipse174"
       d="m 389.72,-173.52 c 0,9.94112 -8.05887,18 -18,18 -9.94112,0 -18,-8.05888 -18,-18 0,-9.94113 8.05888,-18 18,-18 9.94113,0 18,8.05887 18,18 z"
       sodipodi:cx="371.72"
       sodipodi:cy="-173.52"
       sodipodi:rx="18"
       sodipodi:ry="18"
       style="fill:#000000;stroke:#0000ff;stroke-width:1.60114059"
       transform="translate(4,195.52)" />
    <text
       x="375.72"
       y="25.699987"
       font-weight="bold"
       font-size="14.00"
       id="text176"
       style="font-size:14px;font-weight:bold;text-anchor:middle;fill:#ffffff;font-family:'Helvetica,sans-Serif'">P</text>
    <g
       class="node"
       id="node22"
       transform="translate(4,195.52)">
      <title
         id="title179">N2</title>
      <ellipse
         style="fill:#000000;stroke:#000000"
         sodipodi:ry="18"
         sodipodi:rx="18"
         sodipodi:cy="-137.52"
         sodipodi:cx="317.72"
         d="m 335.72,-137.52 c 0,9.94112 -8.05887,18 -18,18 -9.94112,0 -18,-8.05888 -18,-18 0,-9.94113 8.05888,-18 18,-18 9.94113,0 18,8.05887 18,18 z"
         id="ellipse181"
         ry="18"
         rx="18"
         cy="-137.52"
         cx="317.72" />
      <text
         style="font-size:14px;font-weight:bold;text-anchor:middle;fill:#ffffff;font-family:'Helvetica,sans-Serif'"
         id="text183"
         font-size="14.00"
         font-weight="bold"
         y="-133.82001"
         x="317.72">N</text>
    </g>
    <g
       class="edge"
       id="edge11"
       transform="translate(4,195.52)">
      <title
         id="title186">P2-&gt;N2</title>
      <path
         style="fill:none;stroke:#000000"
         id="path188"
         d="m 356.678,-163.492 c -4.718,3.145 -10.047,6.698 -15.214,10.143" />
      <polygon
         style="fill:#000000;stroke:#000000"
         id="polygon190"
         points="339.436,-156.204 343.319,-150.379 343.319,-150.379 333.057,-147.744 " />
    </g>
    <g
       class="node"
       id="node23"
       transform="translate(4,195.52)">
      <title
         id="title193">S2</title>
      <ellipse
         style="fill:#ff0000;stroke:#000000"
         sodipodi:ry="18"
         sodipodi:rx="18"
         sodipodi:cy="-137.52"
         sodipodi:cx="425.72"
         d="m 443.72,-137.52 c 0,9.94112 -8.05887,18 -18,18 -9.94112,0 -18,-8.05888 -18,-18 0,-9.94113 8.05888,-18 18,-18 9.94113,0 18,8.05887 18,18 z"
         id="ellipse195"
         ry="18"
         rx="18"
         cy="-137.52"
         cx="425.72" />
      <text
         style="font-size:14px;font-weight:bold;text-anchor:middle;fill:#ffffff;font-family:'Helvetica,sans-Serif'"
         id="text197"
         font-size="14.00"
         font-weight="bold"
         y="-133.82001"
         x="425.72">S</text>
    </g>
    <g
       class="edge"
       id="edge12"
       transform="translate(4,195.52)">
      <title
         id="title200">P2-&gt;S2</title>
      <path
         style="fill:none;stroke:#000000"
         id="path202"
         d="m 386.762,-163.492 c 4.718,3.145 10.047,6.698 15.214,10.143" />
      <polygon
         style="fill:#000000;stroke:#000000"
         id="polygon204"
         points="400.121,-150.379 404.004,-156.204 404.004,-156.204 410.383,-147.744 " />
    </g>
    <g
       class="edge"
       id="edge15"
       transform="translate(4,195.52)">
      <title
         id="title207">N2-&gt;dot1b</title>
      <path
         style="fill:none;stroke:#000000"
         id="path209"
         d="m 311.004,-120.73 c -2.698,6.745 -5.795,14.488 -8.463,21.1578" />
      <polygon
         style="fill:#000000;stroke:#000000"
         id="polygon211"
         points="299.285,-100.857 305.784,-98.257 305.784,-98.257 298.821,-90.2721 " />
    </g>
    <g
       class="edge"
       id="edge16"
       transform="translate(4,195.52)">
      <title
         id="title214">N2-&gt;dot2b</title>
      <path
         style="fill:none;stroke:#000000"
         id="path216"
         d="m 324.436,-120.73 c 2.698,6.745 5.795,14.488 8.463,21.1578" />
      <polygon
         style="fill:#000000;stroke:#000000"
         id="polygon218"
         points="329.656,-98.257 336.155,-100.857 336.155,-100.857 336.619,-90.2721 " />
    </g>
    <g
       class="node"
       id="node24"
       transform="translate(4,195.52)">
      <title
         id="title221">SL2</title>
      <ellipse
         style="fill:#000000;stroke:#000000"
         sodipodi:ry="18"
         sodipodi:rx="18"
         sodipodi:cy="-83.519997"
         sodipodi:cx="389.72"
         d="m 407.72,-83.519997 c 0,9.941126 -8.05887,18 -18,18 -9.94112,0 -18,-8.058874 -18,-18 0,-9.941125 8.05888,-18.000003 18,-18.000003 9.94113,0 18,8.058878 18,18.000003 z"
         id="ellipse223"
         ry="18"
         rx="18"
         cy="-83.519997"
         cx="389.72" />
      <text
         style="font-size:14px;font-weight:bold;text-anchor:middle;fill:#ffffff;font-family:'Helvetica,sans-Serif'"
         id="text225"
         font-size="14.00"
         font-weight="bold"
         y="-79.82"
         x="389.72">S</text>
    </g>
    <g
       class="edge"
       id="edge13"
       transform="translate(4,195.52)">
      <title
         id="title228">S2-&gt;SL2</title>
      <path
         style="fill:none;stroke:#000000"
         id="path230"
         d="m 415.692,-122.478 c -3.145,4.718 -6.698,10.047 -10.143,15.214" />
      <polygon
         style="fill:#000000;stroke:#000000"
         id="polygon232"
         points="402.579,-109.119 408.404,-105.236 408.404,-105.236 399.944,-98.8566 " />
    </g>
    <g
       class="node"
       id="node25"
       transform="translate(4,195.52)">
      <title
         id="title235">SR2</title>
      <ellipse
         style="fill:#000000;stroke:#000000"
         sodipodi:ry="18"
         sodipodi:rx="18"
         sodipodi:cy="-83.519997"
         sodipodi:cx="461.72"
         d="m 479.72,-83.519997 c 0,9.941126 -8.05887,18 -18,18 -9.94112,0 -18,-8.058874 -18,-18 0,-9.941125 8.05888,-18.000003 18,-18.000003 9.94113,0 18,8.058878 18,18.000003 z"
         id="ellipse237"
         ry="18"
         rx="18"
         cy="-83.519997"
         cx="461.72" />
      <text
         style="font-size:14px;font-weight:bold;text-anchor:middle;fill:#ffffff;font-family:'Helvetica,sans-Serif'"
         id="text239"
         font-size="14.00"
         font-weight="bold"
         y="-79.82"
         x="461.72">S</text>
    </g>
    <g
       class="edge"
       id="edge14"
       transform="translate(4,195.52)">
      <title
         id="title242">S2-&gt;SR2</title>
      <path
         style="fill:none;stroke:#000000"
         id="path244"
         d="m 435.748,-122.478 c 3.145,4.718 6.698,10.047 10.143,15.214" />
      <polygon
         style="fill:#000000;stroke:#000000"
         id="polygon246"
         points="443.036,-105.236 448.861,-109.119 448.861,-109.119 451.496,-98.8566 " />
    </g>
    <g
       class="edge"
       id="edge17"
       transform="translate(4,195.52)">
      <title
         id="title249">SL2-&gt;dot3b</title>
      <path
         style="fill:none;stroke:#000000"
         id="path251"
         d="m 383.004,-66.7301 c -2.698,6.7456 -5.795,14.4882 -8.463,21.1579" />
      <polygon
         style="fill:#000000;stroke:#000000"
         id="polygon253"
         points="371.285,-46.8567 377.784,-44.257 377.784,-44.257 370.821,-36.2721 " />
    </g>
    <g
       class="edge"
       id="edge18"
       transform="translate(4,195.52)">
      <title
         id="title256">SL2-&gt;dot4b</title>
      <path
         style="fill:none;stroke:#000000"
         id="path258"
         d="m 396.436,-66.7301 c 2.698,6.7456 5.795,14.4882 8.463,21.1579" />
      <polygon
         style="fill:#000000;stroke:#000000"
         id="polygon260"
         points="401.656,-44.257 408.155,-46.8567 408.155,-46.8567 408.619,-36.2721 " />
    </g>
    <g
       class="edge"
       id="edge19"
       transform="translate(4,195.52)">
      <title
         id="title263">SR2-&gt;dot5b</title>
      <path
         style="fill:none;stroke:#000000"
         id="path265"
         d="m 455.004,-66.7301 c -2.698,6.7456 -5.795,14.4882 -8.463,21.1579" />
      <polygon
         style="fill:#000000;stroke:#000000"
         id="polygon267"
         points="443.285,-46.8567 449.784,-44.257 449.784,-44.257 442.821,-36.2721 " />
    </g>
    <g
       class="edge"
       id="edge20"
       transform="translate(4,195.52)">
      <title
         id="title270">SR2-&gt;dot6b</title>
      <path
         style="fill:none;stroke:#000000"
         id="path272"
         d="m 468.436,-66.7301 c 2.698,6.7456 5.795,14.4882 8.463,21.1579" />
      <polygon
         style="fill:#000000;stroke:#000000"
         id="polygon274"
         points="473.656,-44.257 480.155,-46.8567 480.155,-46.8567 480.619,-36.2721 " />
    </g>
    <g
       class="node"
       id="node32"
       transform="translate(4,195.52)">
      <title
         id="title277">tri1b</title>
      <polygon
         style="fill:none;stroke:#000000"
         id="polygon279"
         points="310,-63 299,-90 299,-90 288,-63 " />
      <text
         style="font-size:14px;font-weight:bold;text-anchor:middle;font-family:'Helvetica,sans-Serif'"
         id="text281"
         font-size="14.00"
         font-weight="bold"
         y="-68.300003"
         x="299">1</text>
    </g>
    <g
       class="node"
       id="node33"
       transform="translate(4,195.52)">
      <title
         id="title284">tri2b</title>
      <polygon
         style="fill:none;stroke:#000000"
         id="polygon286"
         points="347.44,-63 336.44,-90 336.44,-90 325.44,-63 " />
      <text
         style="font-size:14px;font-weight:bold;text-anchor:middle;font-family:'Helvetica,sans-Serif'"
         id="text288"
         font-size="14.00"
         font-weight="bold"
         y="-68.300003"
         x="336.44">2</text>
    </g>
    <g
       class="node"
       id="node34"
       transform="translate(4,195.52)">
      <title
         id="title291">tri3b</title>
      <polygon
         style="fill:none;stroke:#000000"
         id="polygon293"
         points="382,-9 371,-36 371,-36 360,-9 " />
      <text
         style="font-size:14px;font-weight:bold;text-anchor:middle;font-family:'Helvetica,sans-Serif'"
         id="text295"
         font-size="14.00"
         font-weight="bold"
         y="-14.3"
         x="371">3</text>
    </g>
    <g
       class="node"
       id="node35"
       transform="translate(4,195.52)">
      <title
         id="title298">tri4b</title>
      <polygon
         style="fill:none;stroke:#000000"
         id="polygon300"
         points="419.44,-9 408.44,-36 408.44,-36 397.44,-9 " />
      <text
         style="font-size:14px;font-weight:bold;text-anchor:middle;font-family:'Helvetica,sans-Serif'"
         id="text302"
         font-size="14.00"
         font-weight="bold"
         y="-14.3"
         x="408.44">4</text>
    </g>
    <g
       class="node"
       id="node36"
       transform="translate(4,195.52)">
      <title
         id="title305">tri5b</title>
      <polygon
         style="fill:none;stroke:#000000"
         id="polygon307"
         points="454,-9 443,-36 443,-36 432,-9 " />
      <text
         style="font-size:14px;font-weight:bold;text-anchor:middle;font-family:'Helvetica,sans-Serif'"
         id="text309"
         font-size="14.00"
         font-weight="bold"
         y="-14.3"
         x="443">5</text>
    </g>
    <g
       class="node"
       id="node37"
       transform="translate(4,195.52)">
      <title
         id="title312">tri6b</title>
      <polygon
         style="fill:none;stroke:#000000"
         id="polygon314"
         points="491.44,-9 480.44,-36 480.44,-36 469.44,-9 " />
      <text
         style="font-size:14px;font-weight:bold;text-anchor:middle;font-family:'Helvetica,sans-Serif'"
         id="text316"
         font-size="14.00"
         font-weight="bold"
         y="-14.3"
         x="480.44">6</text>
    </g>
    <g
       class="node"
       id="node38"
       transform="translate(4,195.52)">
      <title
         id="title319">subscript3</title>
      <text
         style="font-size:10px;font-weight:bold;text-anchor:middle;fill:#ffffff;font-family:'Helvetica,sans-Serif'"
         id="text321"
         font-size="10.00"
         font-weight="bold"
         y="-76.699997"
         x="398.35999">L</text>
    </g>
    <g
       class="node"
       id="node39"
       transform="translate(4,195.52)">
      <title
         id="title324">subscript4</title>
      <text
         style="font-size:10px;font-weight:bold;text-anchor:middle;fill:#ffffff;font-family:'Helvetica,sans-Serif'"
         id="text326"
         font-size="10.00"
         font-weight="bold"
         y="-76.699997"
         x="470.35999">R</text>
    </g>
  </g>
</svg>
