<?xml version="1.0" encoding="UTF-8" standalone="no"?>
<!-- Generated by graphviz version 2.36.0 (20140111.2315)
 -->

<!-- Title: G Pages: 1 -->

<svg
   xmlns:dc="http://purl.org/dc/elements/1.1/"
   xmlns:cc="http://creativecommons.org/ns#"
   xmlns:rdf="http://www.w3.org/1999/02/22-rdf-syntax-ns#"
   xmlns:svg="http://www.w3.org/2000/svg"
   xmlns="http://www.w3.org/2000/svg"
   xmlns:sodipodi="http://sodipodi.sourceforge.net/DTD/sodipodi-0.dtd"
   xmlns:inkscape="http://www.inkscape.org/namespaces/inkscape"
   width="841.24976"
   height="244.50002"
   viewBox="0 0 673.39921 195.78992"
   id="svg2"
   version="1.1"
   inkscape:version="0.47 r22583"
   sodipodi:docname="Red-black_tree_insert_case_5.svg">
  <metadata
     id="metadata286">
    <rdf:RDF>
      <cc:Work
         rdf:about="">
        <dc:format>image/svg+xml</dc:format>
        <dc:type
           rdf:resource="http://purl.org/dc/dcmitype/StillImage" />
      </cc:Work>
    </rdf:RDF>
  </metadata>
  <defs
     id="defs284">
    <inkscape:perspective
       sodipodi:type="inkscape:persp3d"
       inkscape:vp_x="0 : 128.75 : 1"
       inkscape:vp_y="0 : 1000 : 0"
       inkscape:vp_z="842.5 : 128.75 : 1"
       inkscape:persp3d-origin="421.25 : 85.833333 : 1"
       id="perspective288" />
    <inkscape:perspective
       id="perspective3040"
       inkscape:persp3d-origin="0.5 : 0.33333333 : 1"
       inkscape:vp_z="1 : 0.5 : 1"
       inkscape:vp_y="0 : 1000 : 0"
       inkscape:vp_x="0 : 0.5 : 1"
       sodipodi:type="inkscape:persp3d" />
    <inkscape:perspective
       id="perspective2985"
       inkscape:persp3d-origin="0.5 : 0.33333333 : 1"
       inkscape:vp_z="1 : 0.5 : 1"
       inkscape:vp_y="0 : 1000 : 0"
       inkscape:vp_x="0 : 0.5 : 1"
       sodipodi:type="inkscape:persp3d" />
    <inkscape:perspective
       id="perspective3008"
       inkscape:persp3d-origin="0.5 : 0.33333333 : 1"
       inkscape:vp_z="1 : 0.5 : 1"
       inkscape:vp_y="0 : 1000 : 0"
       inkscape:vp_x="0 : 0.5 : 1"
       sodipodi:type="inkscape:persp3d" />
    <inkscape:perspective
       id="perspective3053"
       inkscape:persp3d-origin="0.5 : 0.33333333 : 1"
       inkscape:vp_z="1 : 0.5 : 1"
       inkscape:vp_y="0 : 1000 : 0"
       inkscape:vp_x="0 : 0.5 : 1"
       sodipodi:type="inkscape:persp3d" />
    <inkscape:perspective
       id="perspective2985-1"
       inkscape:persp3d-origin="0.5 : 0.33333333 : 1"
       inkscape:vp_z="1 : 0.5 : 1"
       inkscape:vp_y="0 : 1000 : 0"
       inkscape:vp_x="0 : 0.5 : 1"
       sodipodi:type="inkscape:persp3d" />
  </defs>
  <sodipodi:namedview
     pagecolor="#ffffff"
     bordercolor="#666666"
     borderopacity="1"
     objecttolerance="10"
     gridtolerance="10"
     guidetolerance="10"
     inkscape:pageopacity="0"
     inkscape:pageshadow="2"
     inkscape:window-width="1518"
     inkscape:window-height="867"
     id="namedview282"
     showgrid="false"
     inkscape:zoom="2"
     inkscape:cx="242.04244"
     inkscape:cy="116.51369"
     inkscape:window-x="0"
     inkscape:window-y="0"
     inkscape:window-maximized="0"
     inkscape:current-layer="layer2"
     borderlayer="true" />
  <g
     inkscape:groupmode="layer"
     id="layer3"
     inkscape:label="corners"
     transform="translate(-0.67389711,-0.80078268)">
    <rect
       style="opacity:0.7;fill:#000000;stroke:#ffffff;stroke-width:6.40621376;stroke-linecap:butt;stroke-miterlimit:4;stroke-dasharray:38.43728194, 38.43728194;stroke-dashoffset:0;display:inline"
       id="rect2980-1"
       width="1.2011651"
       height="0.80077672"
       x="669.79572"
       y="4.0038896" />
    <rect
       style="opacity:0.7;fill:#000000;stroke:#ffffff;stroke-width:6.40621376;stroke-linecap:butt;stroke-miterlimit:4;stroke-dasharray:38.43728294, 38.43728294;stroke-dashoffset:0;display:inline"
       id="rect2980-7"
       width="1.2011651"
       height="0.80077672"
       x="3.7498617"
       y="192.58682" />
  </g>
  <g
     inkscape:groupmode="layer"
     id="layer2"
     inkscape:label="all"
     style="display:inline"
     transform="translate(-0.8009064,-0.80078268)">
    <g
       class="node"
       id="node1"
       transform="translate(4,202.198)">
      <title
         id="title10">G1</title>
      <ellipse
         style="fill:#000000;stroke:#000000"
         sodipodi:ry="18.399"
         sodipodi:rx="18.399"
         sodipodi:cy="-180"
         sodipodi:cx="155"
         d="m 173.399,-180 c 0,10.16149 -8.23751,18.399 -18.399,18.399 -10.16149,0 -18.399,-8.23751 -18.399,-18.399 0,-10.16149 8.23751,-18.399 18.399,-18.399 10.16149,0 18.399,8.23751 18.399,18.399 z"
         id="ellipse12"
         ry="18.399"
         rx="18.399"
         cy="-180"
         cx="155" />
      <text
         style="font-size:14px;font-weight:bold;text-anchor:middle;fill:#ffffff;font-family:'Helvetica,sans-Serif'"
         id="text14"
         font-size="14.00"
         font-weight="bold"
         y="-176.3"
         x="155">G</text>
    </g>
    <g
       class="edge"
       id="edge1"
       transform="translate(4,202.198)">
      <title
         id="title24">G1-&gt;P1</title>
      <path
         style="fill:none;stroke:#000000"
         id="path26"
         d="m 138.662,-171.831 c -8.929,4.465 -20.187,10.094 -30.238,15.119" />
      <polygon
         style="fill:#000000;stroke:#000000"
         id="polygon28"
         points="106.652,-159.739 109.783,-153.478 109.783,-153.478 99.2733,-152.137 " />
    </g>
    <g
       class="node"
       id="node2"
       transform="translate(4,202.198)">
      <title
         id="title17">P1</title>
      <ellipse
         style="fill:#ff0000;stroke:#000000"
         sodipodi:ry="18"
         sodipodi:rx="18"
         sodipodi:cy="-144"
         sodipodi:cx="83"
         d="m 101,-144 c 0,9.94113 -8.058875,18 -18,18 -9.941125,0 -18,-8.05887 -18,-18 0,-9.94113 8.058875,-18 18,-18 9.941125,0 18,8.05887 18,18 z"
         id="ellipse19"
         ry="18"
         rx="18"
         cy="-144"
         cx="83" />
      <text
         style="font-size:14px;font-weight:bold;text-anchor:middle;fill:#ffffff;font-family:'Helvetica,sans-Serif'"
         id="text21"
         font-size="14.00"
         font-weight="bold"
         y="-140.3"
         x="83">P</text>
    </g>
    <g
       class="node"
       id="node3"
       transform="translate(4,202.198)">
      <title
         id="title31">U1</title>
      <ellipse
         style="fill:#000000;stroke:#000000"
         sodipodi:ry="18"
         sodipodi:rx="18"
         sodipodi:cy="-144"
         sodipodi:cx="227"
         d="m 245,-144 c 0,9.94113 -8.05887,18 -18,18 -9.94113,0 -18,-8.05887 -18,-18 0,-9.94113 8.05887,-18 18,-18 9.94113,0 18,8.05887 18,18 z"
         id="ellipse33"
         ry="18"
         rx="18"
         cy="-144"
         cx="227" />
      <text
         style="font-size:14px;font-weight:bold;text-anchor:middle;fill:#ffffff;font-family:'Helvetica,sans-Serif'"
         id="text35"
         font-size="14.00"
         font-weight="bold"
         y="-140.3"
         x="227">U</text>
    </g>
    <g
       class="edge"
       id="edge2"
       transform="translate(4,202.198)">
      <title
         id="title38">G1-&gt;U1</title>
      <path
         style="fill:none;stroke:#000000"
         id="path40"
         d="m 171.338,-171.831 c 8.929,4.465 20.187,10.094 30.238,15.119" />
      <polygon
         style="fill:#000000;stroke:#000000"
         id="polygon42"
         points="200.217,-153.478 203.348,-159.739 203.348,-159.739 210.727,-152.137 " />
    </g>
    <g
       class="edge"
       id="edge3"
       transform="translate(4,202.198)">
      <title
         id="title52">P1-&gt;N1</title>
      <path
         style="fill:none;stroke:#000000"
         id="path54"
         d="m 72.972,-128.958 c -3.1454,4.718 -6.6979,10.047 -10.1427,15.214" />
      <polygon
         style="fill:#000000;stroke:#000000"
         id="polygon56"
         points="59.8592,-115.599 65.6836,-111.716 65.6836,-111.716 57.2244,-105.337 " />
    </g>
    <ellipse
       cx="47"
       cy="-90"
       rx="18"
       ry="18"
       id="ellipse47"
       d="m 65,-90 c 0,9.941125 -8.058875,18 -18,18 -9.941125,0 -18,-8.058875 -18,-18 0,-9.941125 8.058875,-18 18,-18 9.941125,0 18,8.058875 18,18 z"
       sodipodi:cx="47"
       sodipodi:cy="-90"
       sodipodi:rx="18"
       sodipodi:ry="18"
       style="fill:#ff0000;stroke:#0000ff;stroke-width:1.60155344"
       transform="translate(4,202.198)" />
    <text
       x="51.000004"
       y="115.89798"
       font-weight="bold"
       font-size="14.00"
       id="text49"
       style="font-size:14px;font-weight:bold;text-anchor:middle;fill:#ffffff;font-family:'Helvetica,sans-Serif'">N</text>
    <g
       class="node"
       id="node7"
       transform="translate(4,202.198)">
      <title
         id="title59">dot3</title>
      <ellipse
         style="fill:#000000;stroke:#000000"
         sodipodi:ry="7"
         sodipodi:rx="7"
         sodipodi:cy="-90"
         sodipodi:cx="119"
         d="m 126,-90 c 0,3.865993 -3.13401,7 -7,7 -3.86599,0 -7,-3.134007 -7,-7 0,-3.865993 3.13401,-7 7,-7 3.86599,0 7,3.134007 7,7 z"
         id="ellipse61"
         ry="7"
         rx="7"
         cy="-90"
         cx="119" />
    </g>
    <g
       class="edge"
       id="edge6"
       transform="translate(4,202.198)">
      <title
         id="title64">P1-&gt;dot3</title>
      <path
         style="fill:none;stroke:#000000"
         id="path66"
         d="m 93.028,-128.958 c 5.0907,7.636 11.247,16.871 16.289,24.433" />
      <polygon
         style="fill:#000000;stroke:#000000"
         id="polygon68"
         points="106.482,-102.467 112.307,-106.35 112.307,-106.35 114.941,-96.0879 " />
    </g>
    <g
       class="edge"
       id="edge7"
       transform="translate(4,202.198)">
      <title
         id="title71">U1-&gt;dot4</title>
      <path
         style="fill:none;stroke:#000000"
         id="path73"
         d="m 216.972,-128.958 c -5.091,7.636 -11.247,16.871 -16.289,24.433" />
      <polygon
         style="fill:#000000;stroke:#000000"
         id="polygon75"
         points="197.693,-106.35 203.518,-102.467 203.518,-102.467 195.059,-96.0879 " />
    </g>
    <g
       class="edge"
       id="edge8"
       transform="translate(4,202.198)">
      <title
         id="title78">U1-&gt;dot5</title>
      <path
         style="fill:none;stroke:#000000"
         id="path80"
         d="m 237.028,-128.958 c 5.091,7.636 11.247,16.871 16.289,24.433" />
      <polygon
         style="fill:#000000;stroke:#000000"
         id="polygon82"
         points="250.482,-102.467 256.307,-106.35 256.307,-106.35 258.941,-96.0879 " />
    </g>
    <g
       class="node"
       id="node5"
       transform="translate(4,202.198)">
      <title
         id="title85">dot1</title>
      <ellipse
         style="fill:#000000;stroke:#000000"
         sodipodi:ry="7"
         sodipodi:rx="7"
         sodipodi:cy="-36"
         sodipodi:cx="11"
         d="m 18,-36 c 0,3.865993 -3.134007,7 -7,7 -3.8659932,0 -7,-3.134007 -7,-7 0,-3.865993 3.1340068,-7 7,-7 3.865993,0 7,3.134007 7,7 z"
         id="ellipse87"
         ry="7"
         rx="7"
         cy="-36"
         cx="11" />
    </g>
    <g
       class="edge"
       id="edge4"
       transform="translate(4,202.198)">
      <title
         id="title90">N1-&gt;dot1</title>
      <path
         style="fill:none;stroke:#000000"
         id="path92"
         d="m 36.972,-74.958 c -5.0907,7.6361 -11.2475,16.8712 -16.2887,24.4331" />
      <polygon
         style="fill:#000000;stroke:#000000"
         id="polygon94"
         points="17.6935,-52.3499 23.5178,-48.4669 23.5178,-48.4669 15.0586,-42.0879 " />
    </g>
    <g
       class="node"
       id="node6"
       transform="translate(4,202.198)">
      <title
         id="title97">dot2</title>
      <ellipse
         style="fill:#000000;stroke:#000000"
         sodipodi:ry="7"
         sodipodi:rx="7"
         sodipodi:cy="-36"
         sodipodi:cx="83"
         d="m 90,-36 c 0,3.865993 -3.134007,7 -7,7 -3.865993,0 -7,-3.134007 -7,-7 0,-3.865993 3.134007,-7 7,-7 3.865993,0 7,3.134007 7,7 z"
         id="ellipse99"
         ry="7"
         rx="7"
         cy="-36"
         cx="83" />
    </g>
    <g
       class="edge"
       id="edge5"
       transform="translate(4,202.198)">
      <title
         id="title102">N1-&gt;dot2</title>
      <path
         style="fill:none;stroke:#000000"
         id="path104"
         d="m 57.028,-74.958 c 5.0907,7.6361 11.2475,16.8712 16.2887,24.4331" />
      <polygon
         style="fill:#000000;stroke:#000000"
         id="polygon106"
         points="70.4822,-48.4669 76.3065,-52.3499 76.3065,-52.3499 78.9414,-42.0879 " />
    </g>
    <g
       class="node"
       id="node10"
       transform="translate(4,202.198)">
      <title
         id="title109">tri1</title>
      <polygon
         style="fill:none;stroke:#000000"
         id="polygon111"
         points="22,-9 11,-36 11,-36 -1.77636e-15,-9 " />
      <text
         style="font-size:14px;font-weight:bold;text-anchor:middle;font-family:'Helvetica,sans-Serif'"
         id="text113"
         font-size="14.00"
         font-weight="bold"
         y="-14.3"
         x="11">1</text>
    </g>
    <g
       class="node"
       id="node11"
       transform="translate(4,202.198)">
      <title
         id="title116">tri2</title>
      <polygon
         style="fill:none;stroke:#000000"
         id="polygon118"
         points="94,-9 83,-36 83,-36 72,-9 " />
      <text
         style="font-size:14px;font-weight:bold;text-anchor:middle;font-family:'Helvetica,sans-Serif'"
         id="text120"
         font-size="14.00"
         font-weight="bold"
         y="-14.3"
         x="83">2</text>
    </g>
    <g
       class="node"
       id="node12"
       transform="translate(4,202.198)">
      <title
         id="title123">tri3</title>
      <polygon
         style="fill:none;stroke:#000000"
         id="polygon125"
         points="130,-63 119,-90 119,-90 108,-63 " />
      <text
         style="font-size:14px;font-weight:bold;text-anchor:middle;font-family:'Helvetica,sans-Serif'"
         id="text127"
         font-size="14.00"
         font-weight="bold"
         y="-68.300003"
         x="119">3</text>
    </g>
    <g
       class="node"
       id="node13"
       transform="translate(4,202.198)">
      <title
         id="title130">tri4</title>
      <polygon
         style="fill:none;stroke:#000000"
         id="polygon132"
         points="205.6,-68.76 194.6,-95.76 194.6,-95.76 183.6,-68.76 " />
      <text
         style="font-size:14px;font-weight:bold;text-anchor:middle;font-family:'Helvetica,sans-Serif'"
         id="text134"
         font-size="14.00"
         font-weight="bold"
         y="-74.059998"
         x="194.60001">4</text>
    </g>
    <g
       class="node"
       id="node14"
       transform="translate(4,202.198)">
      <title
         id="title137">tri5</title>
      <polygon
         style="fill:none;stroke:#000000"
         id="polygon139"
         points="270.4,-68.76 259.4,-95.76 259.4,-95.76 248.4,-68.76 " />
      <text
         style="font-size:14px;font-weight:bold;text-anchor:middle;font-family:'Helvetica,sans-Serif'"
         id="text141"
         font-size="14.00"
         font-weight="bold"
         y="-74.059998"
         x="259.39999">5</text>
    </g>
    <g
       class="node"
       id="node15"
       transform="translate(4,202.198)">
      <title
         id="title144">arrow</title>
      <polygon
         style="fill:#0000ff;stroke:#000000"
         id="polygon146"
         points="353,-108 353,-102 353,-102 299,-102 299,-78 353,-78 353,-72 371,-90 " />
    </g>
    <g
       class="node"
       id="node16"
       transform="translate(4,202.198)">
      <title
         id="title149">G2</title>
      <ellipse
         style="fill:#ff0000;stroke:#000000"
         sodipodi:ry="18.399"
         sodipodi:rx="18.399"
         sodipodi:cy="-144"
         sodipodi:cx="587"
         d="m 605.399,-144 c 0,10.16149 -8.23751,18.399 -18.399,18.399 -10.16149,0 -18.399,-8.23751 -18.399,-18.399 0,-10.16149 8.23751,-18.399 18.399,-18.399 10.16149,0 18.399,8.23751 18.399,18.399 z"
         id="ellipse151"
         ry="18.399"
         rx="18.399"
         cy="-144"
         cx="587" />
      <text
         style="font-size:14px;font-weight:bold;text-anchor:middle;fill:#ffffff;font-family:'Helvetica,sans-Serif'"
         id="text153"
         font-size="14.00"
         font-weight="bold"
         y="-140.3"
         x="587">G</text>
    </g>
    <g
       class="node"
       id="node18"
       transform="translate(4,202.198)">
      <title
         id="title156">U2</title>
      <ellipse
         style="fill:#000000;stroke:#000000"
         sodipodi:ry="18"
         sodipodi:rx="18"
         sodipodi:cy="-90"
         sodipodi:cx="623"
         d="m 641,-90 c 0,9.941125 -8.05887,18 -18,18 -9.94113,0 -18,-8.058875 -18,-18 0,-9.941125 8.05887,-18 18,-18 9.94113,0 18,8.058875 18,18 z"
         id="ellipse158"
         ry="18"
         rx="18"
         cy="-90"
         cx="623" />
      <text
         style="font-size:14px;font-weight:bold;text-anchor:middle;fill:#ffffff;font-family:'Helvetica,sans-Serif'"
         id="text160"
         font-size="14.00"
         font-weight="bold"
         y="-86.300003"
         x="623">U</text>
    </g>
    <g
       class="edge"
       id="edge11"
       transform="translate(4,202.198)">
      <title
         id="title163">G2-&gt;U2</title>
      <path
         style="fill:none;stroke:#000000"
         id="path165"
         d="m 597.22,-128.67 c 3.143,4.714 6.677,10.016 10.098,15.147" />
      <polygon
         style="fill:#000000;stroke:#000000"
         id="polygon167"
         points="604.42,-111.56 610.244,-115.443 610.244,-115.443 612.879,-105.181 " />
    </g>
    <g
       class="node"
       id="node22"
       transform="translate(4,202.198)">
      <title
         id="title170">dot3b</title>
      <ellipse
         style="fill:#000000;stroke:#000000"
         sodipodi:ry="7"
         sodipodi:rx="7"
         sodipodi:cy="-90"
         sodipodi:cx="551"
         d="m 558,-90 c 0,3.865993 -3.13401,7 -7,7 -3.86599,0 -7,-3.134007 -7,-7 0,-3.865993 3.13401,-7 7,-7 3.86599,0 7,3.134007 7,7 z"
         id="ellipse172"
         ry="7"
         rx="7"
         cy="-90"
         cx="551" />
    </g>
    <g
       class="edge"
       id="edge14"
       transform="translate(4,202.198)">
      <title
         id="title175">G2-&gt;dot3b</title>
      <path
         style="fill:none;stroke:#000000"
         id="path177"
         d="m 576.78,-128.67 c -5.086,7.629 -11.199,16.799 -16.196,24.293" />
      <polygon
         style="fill:#000000;stroke:#000000"
         id="polygon179"
         points="557.649,-106.283 563.473,-102.4 563.473,-102.4 555.014,-96.021 " />
    </g>
    <g
       class="edge"
       id="edge10"
       transform="translate(4,202.198)">
      <title
         id="title189">P2-&gt;G2</title>
      <path
         style="fill:none;stroke:#000000"
         id="path191"
         d="m 531.338,-171.831 c 8.804,4.402 19.87,9.935 29.812,14.906" />
      <polygon
         style="fill:#000000;stroke:#000000"
         id="polygon193"
         points="559.718,-153.728 562.848,-159.989 562.848,-159.989 570.227,-152.386 " />
    </g>
    <g
       class="node"
       id="node17"
       transform="translate(4,202.198)">
      <title
         id="title182">P2</title>
      <ellipse
         style="fill:#000000;stroke:#000000"
         sodipodi:ry="18"
         sodipodi:rx="18"
         sodipodi:cy="-180"
         sodipodi:cx="515"
         d="m 533,-180 c 0,9.94113 -8.05887,18 -18,18 -9.94113,0 -18,-8.05887 -18,-18 0,-9.94113 8.05887,-18 18,-18 9.94113,0 18,8.05887 18,18 z"
         id="ellipse184"
         ry="18"
         rx="18"
         cy="-180"
         cx="515" />
      <text
         style="font-size:14px;font-weight:bold;text-anchor:middle;fill:#ffffff;font-family:'Helvetica,sans-Serif'"
         id="text186"
         font-size="14.00"
         font-weight="bold"
         y="-176.3"
         x="515">P</text>
    </g>
    <g
       class="edge"
       id="edge9"
       transform="translate(4,202.198)">
      <title
         id="title203">P2-&gt;N2</title>
      <path
         style="fill:none;stroke:#000000"
         id="path205"
         d="m 498.662,-171.831 c -8.929,4.465 -20.187,10.094 -30.238,15.119" />
      <polygon
         style="fill:#000000;stroke:#000000"
         id="polygon207"
         points="466.652,-159.739 469.783,-153.478 469.783,-153.478 459.273,-152.137 " />
    </g>
    <g
       class="node"
       id="node19"
       transform="translate(4,202.198)">
      <title
         id="title196">N2</title>
      <ellipse
         style="fill:#ff0000;stroke:#000000"
         sodipodi:ry="18"
         sodipodi:rx="18"
         sodipodi:cy="-144"
         sodipodi:cx="443"
         d="m 461,-144 c 0,9.94113 -8.05887,18 -18,18 -9.94113,0 -18,-8.05887 -18,-18 0,-9.94113 8.05887,-18 18,-18 9.94113,0 18,8.05887 18,18 z"
         id="ellipse198"
         ry="18"
         rx="18"
         cy="-144"
         cx="443" />
      <text
         style="font-size:14px;font-weight:bold;text-anchor:middle;fill:#ffffff;font-family:'Helvetica,sans-Serif'"
         id="text200"
         font-size="14.00"
         font-weight="bold"
         y="-140.3"
         x="443">N</text>
    </g>
    <g
       class="edge"
       id="edge15"
       transform="translate(4,202.198)">
      <title
         id="title210">U2-&gt;dot4b</title>
      <path
         style="fill:none;stroke:#000000"
         id="path212"
         d="m 612.972,-74.958 c -5.091,7.6361 -11.247,16.8712 -16.289,24.4331" />
      <polygon
         style="fill:#000000;stroke:#000000"
         id="polygon214"
         points="593.693,-52.3499 599.518,-48.4669 599.518,-48.4669 591.059,-42.0879 " />
    </g>
    <g
       class="edge"
       id="edge16"
       transform="translate(4,202.198)">
      <title
         id="title217">U2-&gt;dot5b</title>
      <path
         style="fill:none;stroke:#000000"
         id="path219"
         d="m 633.028,-74.958 c 5.091,7.6361 11.247,16.8712 16.289,24.4331" />
      <polygon
         style="fill:#000000;stroke:#000000"
         id="polygon221"
         points="646.482,-48.4669 652.307,-52.3499 652.307,-52.3499 654.941,-42.0879 " />
    </g>
    <g
       class="node"
       id="node20"
       transform="translate(4,202.198)">
      <title
         id="title224">dot1b</title>
      <ellipse
         style="fill:#000000;stroke:#000000"
         sodipodi:ry="7"
         sodipodi:rx="7"
         sodipodi:cy="-90"
         sodipodi:cx="407"
         d="m 414,-90 c 0,3.865993 -3.13401,7 -7,7 -3.86599,0 -7,-3.134007 -7,-7 0,-3.865993 3.13401,-7 7,-7 3.86599,0 7,3.134007 7,7 z"
         id="ellipse226"
         ry="7"
         rx="7"
         cy="-90"
         cx="407" />
    </g>
    <g
       class="edge"
       id="edge12"
       transform="translate(4,202.198)">
      <title
         id="title229">N2-&gt;dot1b</title>
      <path
         style="fill:none;stroke:#000000"
         id="path231"
         d="m 432.972,-128.958 c -5.091,7.636 -11.247,16.871 -16.289,24.433" />
      <polygon
         style="fill:#000000;stroke:#000000"
         id="polygon233"
         points="413.693,-106.35 419.518,-102.467 419.518,-102.467 411.059,-96.0879 " />
    </g>
    <g
       class="node"
       id="node21"
       transform="translate(4,202.198)">
      <title
         id="title236">dot2b</title>
      <ellipse
         style="fill:#000000;stroke:#000000"
         sodipodi:ry="7"
         sodipodi:rx="7"
         sodipodi:cy="-90"
         sodipodi:cx="479"
         d="m 486,-90 c 0,3.865993 -3.13401,7 -7,7 -3.86599,0 -7,-3.134007 -7,-7 0,-3.865993 3.13401,-7 7,-7 3.86599,0 7,3.134007 7,7 z"
         id="ellipse238"
         ry="7"
         rx="7"
         cy="-90"
         cx="479" />
    </g>
    <g
       class="edge"
       id="edge13"
       transform="translate(4,202.198)">
      <title
         id="title241">N2-&gt;dot2b</title>
      <path
         style="fill:none;stroke:#000000"
         id="path243"
         d="m 453.028,-128.958 c 5.091,7.636 11.247,16.871 16.289,24.433" />
      <polygon
         style="fill:#000000;stroke:#000000"
         id="polygon245"
         points="466.482,-102.467 472.307,-106.35 472.307,-106.35 474.941,-96.0879 " />
    </g>
    <g
       class="node"
       id="node25"
       transform="translate(4,202.198)">
      <title
         id="title248">tri1b</title>
      <polygon
         style="fill:none;stroke:#000000"
         id="polygon250"
         points="418,-63 407,-90 407,-90 396,-63 " />
      <text
         style="font-size:14px;font-weight:bold;text-anchor:middle;font-family:'Helvetica,sans-Serif'"
         id="text252"
         font-size="14.00"
         font-weight="bold"
         y="-68.300003"
         x="407">1</text>
    </g>
    <g
       class="node"
       id="node26"
       transform="translate(4,202.198)">
      <title
         id="title255">tri2b</title>
      <polygon
         style="fill:none;stroke:#000000"
         id="polygon257"
         points="490,-63 479,-90 479,-90 468,-63 " />
      <text
         style="font-size:14px;font-weight:bold;text-anchor:middle;font-family:'Helvetica,sans-Serif'"
         id="text259"
         font-size="14.00"
         font-weight="bold"
         y="-68.300003"
         x="479">2</text>
    </g>
    <g
       class="node"
       id="node27"
       transform="translate(4,202.198)">
      <title
         id="title262">tri3b</title>
      <polygon
         style="fill:none;stroke:#000000"
         id="polygon264"
         points="562,-63 551,-90 551,-90 540,-63 " />
      <text
         style="font-size:14px;font-weight:bold;text-anchor:middle;font-family:'Helvetica,sans-Serif'"
         id="text266"
         font-size="14.00"
         font-weight="bold"
         y="-68.300003"
         x="551">3</text>
    </g>
    <g
       class="node"
       id="node28"
       transform="translate(4,202.198)">
      <title
         id="title269">tri4b</title>
      <polygon
         style="fill:none;stroke:#000000"
         id="polygon271"
         points="601.6,-14.76 590.6,-41.76 590.6,-41.76 579.6,-14.76 " />
      <text
         style="font-size:14px;font-weight:bold;text-anchor:middle;font-family:'Helvetica,sans-Serif'"
         id="text273"
         font-size="14.00"
         font-weight="bold"
         y="-20.059999"
         x="590.59998">4</text>
    </g>
    <g
       class="node"
       id="node29"
       transform="translate(4,202.198)">
      <title
         id="title276">tri5b</title>
      <polygon
         style="fill:none;stroke:#000000"
         id="polygon278"
         points="666.4,-14.76 655.4,-41.76 655.4,-41.76 644.4,-14.76 " />
      <text
         style="font-size:14px;font-weight:bold;text-anchor:middle;font-family:'Helvetica,sans-Serif'"
         id="text280"
         font-size="14.00"
         font-weight="bold"
         y="-20.059999"
         x="655.40002">5</text>
    </g>
  </g>
</svg>
