<?xml version="1.0" encoding="UTF-8" standalone="no"?>
<!-- Generated by graphviz version 2.36.0 (20140111.2315)
 -->

<!-- Title: G Pages: 1 -->

<svg
   xmlns:dc="http://purl.org/dc/elements/1.1/"
   xmlns:cc="http://creativecommons.org/ns#"
   xmlns:rdf="http://www.w3.org/1999/02/22-rdf-syntax-ns#"
   xmlns:svg="http://www.w3.org/2000/svg"
   xmlns="http://www.w3.org/2000/svg"
   xmlns:sodipodi="http://sodipodi.sourceforge.net/DTD/sodipodi-0.dtd"
   xmlns:inkscape="http://www.inkscape.org/namespaces/inkscape"
   width="813.19995"
   height="237.5"
   viewBox="0 0 650.55996 190.18447"
   id="svg2"
   version="1.1"
   inkscape:version="0.47 r22583"
   sodipodi:docname="Red-black_tree_insert_case_3.svg">
  <metadata
     id="metadata306">
    <rdf:RDF>
      <cc:Work
         rdf:about="">
        <dc:format>image/svg+xml</dc:format>
        <dc:type
           rdf:resource="http://purl.org/dc/dcmitype/StillImage" />
      </cc:Work>
    </rdf:RDF>
  </metadata>
  <defs
     id="defs304">
    <inkscape:perspective
       sodipodi:type="inkscape:persp3d"
       inkscape:vp_x="0 : 128.75 : 1"
       inkscape:vp_y="0 : 1000 : 0"
       inkscape:vp_z="825 : 128.75 : 1"
       inkscape:persp3d-origin="412.5 : 85.833333 : 1"
       id="perspective308" />
    <inkscape:perspective
       id="perspective3079"
       inkscape:persp3d-origin="0.5 : 0.33333333 : 1"
       inkscape:vp_z="1 : 0.5 : 1"
       inkscape:vp_y="0 : 1000 : 0"
       inkscape:vp_x="0 : 0.5 : 1"
       sodipodi:type="inkscape:persp3d" />
    <inkscape:perspective
       id="perspective2996"
       inkscape:persp3d-origin="0.5 : 0.33333333 : 1"
       inkscape:vp_z="1 : 0.5 : 1"
       inkscape:vp_y="0 : 1000 : 0"
       inkscape:vp_x="0 : 0.5 : 1"
       sodipodi:type="inkscape:persp3d" />
  </defs>
  <sodipodi:namedview
     pagecolor="#ffffff"
     bordercolor="#666666"
     borderopacity="1"
     objecttolerance="10"
     gridtolerance="10"
     guidetolerance="10"
     inkscape:pageopacity="0"
     inkscape:pageshadow="2"
     inkscape:window-width="1507"
     inkscape:window-height="793"
     id="namedview302"
     showgrid="false"
     inkscape:zoom="2"
     inkscape:cx="565.87228"
     inkscape:cy="108.69027"
     inkscape:window-x="-65"
     inkscape:window-y="73"
     inkscape:window-maximized="0"
     inkscape:current-layer="svg2"
     borderlayer="true" />
  <g
     inkscape:groupmode="layer"
     id="layer2"
     inkscape:label="corners"
     transform="translate(-3.922845,-0.80077696)">
    <rect
       style="opacity:0.7;fill:#000000;stroke:#ffffff;stroke-width:6.40621376;stroke-linecap:butt;stroke-miterlimit:4;stroke-dasharray:38.43728029, 38.43728029;stroke-dashoffset:0;display:inline"
       id="rect2980"
       width="1.2011651"
       height="0.80077672"
       x="6.8065252"
       y="186.98137" />
    <rect
       style="opacity:0.7;fill:#000000;stroke:#ffffff;stroke-width:6.40621376;stroke-linecap:butt;stroke-miterlimit:4;stroke-dasharray:38.43728075, 38.43728075;stroke-dashoffset:0;display:inline"
       id="rect2980-1"
       width="1.2011651"
       height="0.80077672"
       x="650.39075"
       y="4.0038838" />
  </g>
  <g
     class="node"
     id="node1"
     transform="translate(0.07715503,201.39723)">
    <title
       id="title10">G1</title>
    <ellipse
       style="fill:#000000;stroke:#000000"
       sodipodi:ry="18.399"
       sodipodi:rx="18.399"
       sodipodi:cy="-180"
       sodipodi:cx="155"
       d="m 173.399,-180 c 0,10.16149 -8.23751,18.399 -18.399,18.399 -10.16149,0 -18.399,-8.23751 -18.399,-18.399 0,-10.16149 8.23751,-18.399 18.399,-18.399 10.16149,0 18.399,8.23751 18.399,18.399 z"
       id="ellipse12"
       ry="18.399"
       rx="18.399"
       cy="-180"
       cx="155" />
    <text
       style="font-size:14px;font-weight:bold;text-anchor:middle;fill:#ffffff;font-family:'Helvetica,sans-Serif'"
       id="text14"
       font-size="14.00"
       font-weight="bold"
       y="-176.3"
       x="155">G</text>
  </g>
  <g
     class="edge"
     id="edge1"
     transform="translate(0.07715503,201.39723)">
    <title
       id="title24">G1-&gt;P1</title>
    <path
       style="fill:none;stroke:#000000"
       id="path26"
       d="m 138.662,-171.831 c -8.929,4.465 -20.187,10.094 -30.238,15.119" />
    <polygon
       style="fill:#000000;stroke:#000000"
       id="polygon28"
       points="106.652,-159.739 109.783,-153.478 109.783,-153.478 99.2732,-152.137 " />
  </g>
  <g
     class="node"
     id="node2"
     transform="translate(0.07715503,201.39723)">
    <title
       id="title17">P1</title>
    <ellipse
       style="fill:#ff0000;stroke:#000000"
       sodipodi:ry="18"
       sodipodi:rx="18"
       sodipodi:cy="-144"
       sodipodi:cx="83"
       d="m 101,-144 c 0,9.94113 -8.058875,18 -18,18 -9.941125,0 -18,-8.05887 -18,-18 0,-9.94113 8.058875,-18 18,-18 9.941125,0 18,8.05887 18,18 z"
       id="ellipse19"
       ry="18"
       rx="18"
       cy="-144"
       cx="83" />
    <text
       style="font-size:14px;font-weight:bold;text-anchor:middle;fill:#ffffff;font-family:'Helvetica,sans-Serif'"
       id="text21"
       font-size="14.00"
       font-weight="bold"
       y="-140.3"
       x="83">P</text>
  </g>
  <g
     class="edge"
     id="edge2"
     transform="translate(0.07715503,201.39723)">
    <title
       id="title38">G1-&gt;U1</title>
    <path
       style="fill:none;stroke:#000000"
       id="path40"
       d="m 171.338,-171.831 c 8.929,4.465 20.187,10.094 30.238,15.119" />
    <polygon
       style="fill:#000000;stroke:#000000"
       id="polygon42"
       points="200.217,-153.478 203.348,-159.739 203.348,-159.739 210.727,-152.137 " />
  </g>
  <g
     class="node"
     id="node3"
     transform="translate(0.07715503,201.39723)">
    <title
       id="title31">U1</title>
    <ellipse
       style="fill:#ff0000;stroke:#000000"
       sodipodi:ry="18"
       sodipodi:rx="18"
       sodipodi:cy="-144"
       sodipodi:cx="227"
       d="m 245,-144 c 0,9.94113 -8.05887,18 -18,18 -9.94113,0 -18,-8.05887 -18,-18 0,-9.94113 8.05887,-18 18,-18 9.94113,0 18,8.05887 18,18 z"
       id="ellipse33"
       ry="18"
       rx="18"
       cy="-144"
       cx="227" />
    <text
       style="font-size:14px;font-weight:bold;text-anchor:middle;fill:#ffffff;font-family:'Helvetica,sans-Serif'"
       id="text35"
       font-size="14.00"
       font-weight="bold"
       y="-140.3"
       x="227">U</text>
  </g>
  <g
     class="edge"
     id="edge3"
     transform="translate(0.07715503,201.39723)">
    <title
       id="title52">P1-&gt;N1</title>
    <path
       style="fill:none;stroke:#000000"
       id="path54"
       d="m 72.972,-128.958 c -3.1455,4.718 -6.6979,10.047 -10.1427,15.214" />
    <polygon
       style="fill:#000000;stroke:#000000"
       id="polygon56"
       points="59.8592,-115.599 65.6836,-111.716 65.6836,-111.716 57.2244,-105.337 " />
  </g>
  <ellipse
     cx="47"
     cy="-90"
     rx="18"
     ry="18"
     id="ellipse47"
     d="m 65,-90 c 0,9.941125 -8.058875,18 -18,18 -9.941125,0 -18,-8.058875 -18,-18 0,-9.941125 8.058875,-18 18,-18 9.941125,0 18,8.058875 18,18 z"
     sodipodi:cx="47"
     sodipodi:cy="-90"
     sodipodi:rx="18"
     sodipodi:ry="18"
     style="fill:#ff0000;stroke:#0000ff;stroke-width:1.60155344"
     transform="translate(0.07715503,201.39723)" />
  <text
     x="47.07716"
     y="115.09721"
     font-weight="bold"
     font-size="14.00"
     id="text49"
     style="font-size:14px;font-weight:bold;text-anchor:middle;fill:#ffffff;font-family:'Helvetica,sans-Serif'">N</text>
  <g
     class="edge"
     id="edge6"
     transform="translate(0.07715503,201.39723)">
    <title
       id="title64">P1-&gt;dot3</title>
    <path
       style="fill:none;stroke:#000000"
       id="path66"
       d="m 93.028,-128.958 c 5.0907,7.636 11.247,16.871 16.289,24.433" />
    <polygon
       style="fill:#000000;stroke:#000000"
       id="polygon68"
       points="106.482,-102.467 112.307,-106.35 112.307,-106.35 114.941,-96.0879 " />
  </g>
  <g
     class="edge"
     id="edge7"
     transform="translate(0.07715503,201.39723)">
    <title
       id="title76">U1-&gt;dot4</title>
    <path
       style="fill:none;stroke:#000000"
       id="path78"
       d="m 216.972,-128.958 c -5.091,7.636 -11.248,16.871 -16.289,24.433" />
    <polygon
       style="fill:#000000;stroke:#000000"
       id="polygon80"
       points="197.693,-106.35 203.518,-102.467 203.518,-102.467 195.059,-96.0879 " />
  </g>
  <g
     class="edge"
     id="edge8"
     transform="translate(0.07715503,201.39723)">
    <title
       id="title88">U1-&gt;dot5</title>
    <path
       style="fill:none;stroke:#000000"
       id="path90"
       d="m 237.028,-128.958 c 5.091,7.636 11.247,16.871 16.289,24.433" />
    <polygon
       style="fill:#000000;stroke:#000000"
       id="polygon92"
       points="250.482,-102.467 256.307,-106.35 256.307,-106.35 258.941,-96.0879 " />
  </g>
  <g
     class="edge"
     id="edge4"
     transform="translate(0.07715503,201.39723)">
    <title
       id="title100">N1-&gt;dot1</title>
    <path
       style="fill:none;stroke:#000000"
       id="path102"
       d="m 36.972,-74.958 c -5.0907,7.6361 -11.2475,16.8712 -16.2887,24.4331" />
    <polygon
       style="fill:#000000;stroke:#000000"
       id="polygon104"
       points="17.6934,-52.3499 23.5178,-48.4669 23.5178,-48.4669 15.0586,-42.0879 " />
  </g>
  <g
     class="edge"
     id="edge5"
     transform="translate(0.07715503,201.39723)">
    <title
       id="title112">N1-&gt;dot2</title>
    <path
       style="fill:none;stroke:#000000"
       id="path114"
       d="m 57.028,-74.958 c 5.0907,7.6361 11.2475,16.8712 16.2887,24.4331" />
    <polygon
       style="fill:#000000;stroke:#000000"
       id="polygon116"
       points="70.4822,-48.4669 76.3065,-52.3499 76.3065,-52.3499 78.9414,-42.0879 " />
  </g>
  <g
     class="node"
     id="node10"
     transform="translate(3.8007668,196.19218)">
    <title
       id="title119">tri1</title>
    <polygon
       style="fill:none;stroke:#000000"
       id="polygon121"
       points="11,-36 11,-36 -1.77636e-15,-9 22,-9 " />
    <text
       style="font-size:14px;font-weight:bold;text-anchor:middle;font-family:'Helvetica,sans-Serif'"
       id="text123"
       font-size="14.00"
       font-weight="bold"
       y="-14.3"
       x="11">1</text>
  </g>
  <g
     class="node"
     id="node11"
     transform="translate(-3.6464567,196.19218)">
    <title
       id="title126">tri2</title>
    <polygon
       style="fill:none;stroke:#000000"
       id="polygon128"
       points="83,-36 83,-36 72,-9 94,-9 " />
    <text
       style="font-size:14px;font-weight:bold;text-anchor:middle;font-family:'Helvetica,sans-Serif'"
       id="text130"
       font-size="14.00"
       font-weight="bold"
       y="-14.3"
       x="83">2</text>
  </g>
  <g
     class="node"
     id="node12"
     transform="translate(-3.6464567,196.19218)">
    <title
       id="title133">tri3</title>
    <polygon
       style="fill:none;stroke:#000000"
       id="polygon135"
       points="119,-90 119,-90 108,-63 130,-63 " />
    <text
       style="font-size:14px;font-weight:bold;text-anchor:middle;font-family:'Helvetica,sans-Serif'"
       id="text137"
       font-size="14.00"
       font-weight="bold"
       y="-68.300003"
       x="119">3</text>
  </g>
  <g
     class="node"
     id="node13"
     transform="translate(3.8007668,196.19218)">
    <title
       id="title140">tri4</title>
    <polygon
       style="fill:none;stroke:#000000"
       id="polygon142"
       points="191,-90 191,-90 180,-63 202,-63 " />
    <text
       style="font-size:14px;font-weight:bold;text-anchor:middle;font-family:'Helvetica,sans-Serif'"
       id="text144"
       font-size="14.00"
       font-weight="bold"
       y="-68.300003"
       x="191">4</text>
  </g>
  <g
     class="node"
     id="node14"
     transform="translate(-3.6464567,196.19218)">
    <title
       id="title147">tri5</title>
    <polygon
       style="fill:none;stroke:#000000"
       id="polygon149"
       points="263,-90 263,-90 252,-63 274,-63 " />
    <text
       style="font-size:14px;font-weight:bold;text-anchor:middle;font-family:'Helvetica,sans-Serif'"
       id="text151"
       font-size="14.00"
       font-weight="bold"
       y="-68.300003"
       x="263">5</text>
  </g>
  <g
     class="node"
     id="node15"
     transform="translate(0.07715503,201.39723)">
    <title
       id="title154">arrow</title>
    <polygon
       style="fill:#0000ff;stroke:#000000"
       id="polygon156"
       points="353,-108 353,-102 353,-102 299,-102 299,-78 353,-78 353,-72 371,-90 " />
  </g>
  <ellipse
     cx="533"
     cy="-180"
     rx="18.399"
     ry="18.399"
     id="ellipse161"
     d="m 551.399,-180 c 0,10.16149 -8.23751,18.399 -18.399,18.399 -10.16149,0 -18.399,-8.23751 -18.399,-18.399 0,-10.16149 8.23751,-18.399 18.399,-18.399 10.16149,0 18.399,8.23751 18.399,18.399 z"
     sodipodi:cx="533"
     sodipodi:cy="-180"
     sodipodi:rx="18.399"
     sodipodi:ry="18.399"
     style="fill:#ff0000;stroke:#0000ff;stroke-width:1.60155344"
     transform="translate(0.07715503,201.39723)" />
  <text
     x="533.07715"
     y="25.097219"
     font-weight="bold"
     font-size="14.00"
     id="text163"
     style="font-size:14px;font-weight:bold;text-anchor:middle;fill:#ffffff;font-family:'Helvetica,sans-Serif'">G</text>
  <g
     class="edge"
     id="edge9"
     transform="translate(0.07715503,201.39723)">
    <title
       id="title173">G2-&gt;P2</title>
    <path
       style="fill:none;stroke:#000000"
       id="path175"
       d="m 516.662,-171.831 c -8.929,4.465 -20.187,10.094 -30.238,15.119" />
    <polygon
       style="fill:#000000;stroke:#000000"
       id="polygon177"
       points="484.652,-159.739 487.783,-153.478 487.783,-153.478 477.273,-152.137 " />
  </g>
  <g
     class="node"
     id="node17"
     transform="translate(0.07715503,201.39723)">
    <title
       id="title166">P2</title>
    <ellipse
       style="fill:#000000;stroke:#000000"
       sodipodi:ry="18"
       sodipodi:rx="18"
       sodipodi:cy="-144"
       sodipodi:cx="461"
       d="m 479,-144 c 0,9.94113 -8.05887,18 -18,18 -9.94113,0 -18,-8.05887 -18,-18 0,-9.94113 8.05887,-18 18,-18 9.94113,0 18,8.05887 18,18 z"
       id="ellipse168"
       ry="18"
       rx="18"
       cy="-144"
       cx="461" />
    <text
       style="font-size:14px;font-weight:bold;text-anchor:middle;fill:#ffffff;font-family:'Helvetica,sans-Serif'"
       id="text170"
       font-size="14.00"
       font-weight="bold"
       y="-140.3"
       x="461">P</text>
  </g>
  <g
     class="edge"
     id="edge10"
     transform="translate(0.07715503,201.39723)">
    <title
       id="title187">G2-&gt;U2</title>
    <path
       style="fill:none;stroke:#000000"
       id="path189"
       d="m 549.338,-171.831 c 8.929,4.465 20.187,10.094 30.238,15.119" />
    <polygon
       style="fill:#000000;stroke:#000000"
       id="polygon191"
       points="578.217,-153.478 581.348,-159.739 581.348,-159.739 588.727,-152.137 " />
  </g>
  <g
     class="node"
     id="node18"
     transform="translate(0.07715503,201.39723)">
    <title
       id="title180">U2</title>
    <ellipse
       style="fill:#000000;stroke:#000000"
       sodipodi:ry="18"
       sodipodi:rx="18"
       sodipodi:cy="-144"
       sodipodi:cx="605"
       d="m 623,-144 c 0,9.94113 -8.05887,18 -18,18 -9.94113,0 -18,-8.05887 -18,-18 0,-9.94113 8.05887,-18 18,-18 9.94113,0 18,8.05887 18,18 z"
       id="ellipse182"
       ry="18"
       rx="18"
       cy="-144"
       cx="605" />
    <text
       style="font-size:14px;font-weight:bold;text-anchor:middle;fill:#ffffff;font-family:'Helvetica,sans-Serif'"
       id="text184"
       font-size="14.00"
       font-weight="bold"
       y="-140.3"
       x="605">U</text>
  </g>
  <g
     class="edge"
     id="edge11"
     transform="translate(0.07715503,201.39723)">
    <title
       id="title201">P2-&gt;N2</title>
    <path
       style="fill:none;stroke:#000000"
       id="path203"
       d="m 450.972,-128.958 c -3.145,4.718 -6.698,10.047 -10.143,15.214" />
    <polygon
       style="fill:#000000;stroke:#000000"
       id="polygon205"
       points="437.859,-115.599 443.684,-111.716 443.684,-111.716 435.224,-105.337 " />
  </g>
  <g
     class="node"
     id="node19"
     transform="translate(0.07715503,201.39723)">
    <title
       id="title194">N2</title>
    <ellipse
       style="fill:#ff0000;stroke:#000000"
       sodipodi:ry="18"
       sodipodi:rx="18"
       sodipodi:cy="-90"
       sodipodi:cx="425"
       d="m 443,-90 c 0,9.941125 -8.05887,18 -18,18 -9.94113,0 -18,-8.058875 -18,-18 0,-9.941125 8.05887,-18 18,-18 9.94113,0 18,8.058875 18,18 z"
       id="ellipse196"
       ry="18"
       rx="18"
       cy="-90"
       cx="425" />
    <text
       style="font-size:14px;font-weight:bold;text-anchor:middle;fill:#ffffff;font-family:'Helvetica,sans-Serif'"
       id="text198"
       font-size="14.00"
       font-weight="bold"
       y="-86.300003"
       x="425">N</text>
  </g>
  <g
     class="edge"
     id="edge14"
     transform="translate(0.07715503,201.39723)">
    <title
       id="title213">P2-&gt;dot3b</title>
    <path
       style="fill:none;stroke:#000000"
       id="path215"
       d="m 471.028,-128.958 c 5.091,7.636 11.247,16.871 16.289,24.433" />
    <polygon
       style="fill:#000000;stroke:#000000"
       id="polygon217"
       points="484.482,-102.467 490.307,-106.35 490.307,-106.35 492.941,-96.0879 " />
  </g>
  <g
     class="edge"
     id="edge15"
     transform="translate(0.07715503,201.39723)">
    <title
       id="title225">U2-&gt;dot4b</title>
    <path
       style="fill:none;stroke:#000000"
       id="path227"
       d="m 594.972,-128.958 c -5.091,7.636 -11.248,16.871 -16.289,24.433" />
    <polygon
       style="fill:#000000;stroke:#000000"
       id="polygon229"
       points="575.693,-106.35 581.518,-102.467 581.518,-102.467 573.059,-96.0879 " />
  </g>
  <g
     class="edge"
     id="edge16"
     transform="translate(0.07715503,201.39723)">
    <title
       id="title237">U2-&gt;dot5b</title>
    <path
       style="fill:none;stroke:#000000"
       id="path239"
       d="m 615.028,-128.958 c 5.091,7.636 11.247,16.871 16.289,24.433" />
    <polygon
       style="fill:#000000;stroke:#000000"
       id="polygon241"
       points="628.482,-102.467 634.307,-106.35 634.307,-106.35 636.941,-96.0879 " />
  </g>
  <g
     class="edge"
     id="edge12"
     transform="translate(0.07715503,201.39723)">
    <title
       id="title249">N2-&gt;dot1b</title>
    <path
       style="fill:none;stroke:#000000"
       id="path251"
       d="m 414.972,-74.958 c -5.091,7.6361 -11.248,16.8712 -16.289,24.4331" />
    <polygon
       style="fill:#000000;stroke:#000000"
       id="polygon253"
       points="395.693,-52.3499 401.518,-48.4669 401.518,-48.4669 393.059,-42.0879 " />
  </g>
  <g
     class="edge"
     id="edge13"
     transform="translate(0.07715503,201.39723)">
    <title
       id="title261">N2-&gt;dot2b</title>
    <path
       style="fill:none;stroke:#000000"
       id="path263"
       d="m 435.028,-74.958 c 5.091,7.6361 11.247,16.8712 16.289,24.4331" />
    <polygon
       style="fill:#000000;stroke:#000000"
       id="polygon265"
       points="448.482,-48.4669 454.307,-52.3499 454.307,-52.3499 456.941,-42.0879 " />
  </g>
  <g
     class="node"
     id="node25"
     transform="translate(3.8007668,196.19218)">
    <title
       id="title268">tri1b</title>
    <polygon
       style="fill:none;stroke:#000000"
       id="polygon270"
       points="389,-36 389,-36 378,-9 400,-9 " />
    <text
       style="font-size:14px;font-weight:bold;text-anchor:middle;font-family:'Helvetica,sans-Serif'"
       id="text272"
       font-size="14.00"
       font-weight="bold"
       y="-14.3"
       x="389">1</text>
  </g>
  <g
     class="node"
     id="node26"
     transform="translate(-3.6464567,196.19218)">
    <title
       id="title275">tri2b</title>
    <polygon
       style="fill:none;stroke:#000000"
       id="polygon277"
       points="461,-36 461,-36 450,-9 472,-9 " />
    <text
       style="font-size:14px;font-weight:bold;text-anchor:middle;font-family:'Helvetica,sans-Serif'"
       id="text279"
       font-size="14.00"
       font-weight="bold"
       y="-14.3"
       x="461">2</text>
  </g>
  <g
     class="node"
     id="node27"
     transform="translate(-3.6464567,196.19218)">
    <title
       id="title282">tri3b</title>
    <polygon
       style="fill:none;stroke:#000000"
       id="polygon284"
       points="497,-90 497,-90 486,-63 508,-63 " />
    <text
       style="font-size:14px;font-weight:bold;text-anchor:middle;font-family:'Helvetica,sans-Serif'"
       id="text286"
       font-size="14.00"
       font-weight="bold"
       y="-68.300003"
       x="497">3</text>
  </g>
  <g
     class="node"
     id="node28"
     transform="translate(3.8007668,196.19218)">
    <title
       id="title289">tri4b</title>
    <polygon
       style="fill:none;stroke:#000000"
       id="polygon291"
       points="569,-90 569,-90 558,-63 580,-63 " />
    <text
       style="font-size:14px;font-weight:bold;text-anchor:middle;font-family:'Helvetica,sans-Serif'"
       id="text293"
       font-size="14.00"
       font-weight="bold"
       y="-68.300003"
       x="569">4</text>
  </g>
  <g
     class="node"
     id="node29"
     transform="translate(-3.6464567,196.19218)">
    <title
       id="title296">tri5b</title>
    <polygon
       style="fill:none;stroke:#000000"
       id="polygon298"
       points="641,-90 641,-90 630,-63 652,-63 " />
    <text
       style="font-size:14px;font-weight:bold;text-anchor:middle;font-family:'Helvetica,sans-Serif'"
       id="text300"
       font-size="14.00"
       font-weight="bold"
       y="-68.300003"
       x="641">5</text>
  </g>
  <g
     inkscape:groupmode="layer"
     id="layer1"
     inkscape:label="all"
     transform="translate(-3.922845,-0.80077696)" />
</svg>
